solid 
 facet normal  9.987278e-01  5.042633e-02  0.000000e+00
   outer loop
     vertex  4.200000e-01 -1.028703e-16  1.200000e+00
     vertex  4.200000e-01 -1.028703e-16  0.000000e+00
     vertex  4.178640e-01  4.230423e-02  0.000000e+00
   endloop
 endfacet
 facet normal  9.885695e-01  1.507661e-01 -9.334182e-05
   outer loop
     vertex  4.176206e-01  4.464326e-02  1.200000e+00
     vertex  4.178640e-01  4.230423e-02  0.000000e+00
     vertex  4.114779e-01  8.417817e-02  0.000000e+00
   endloop
 endfacet
 facet normal  9.985827e-01  5.322217e-02  9.882168e-05
   outer loop
     vertex  4.176206e-01  4.464326e-02  1.200000e+00
     vertex  4.200000e-01 -1.028703e-16  1.200000e+00
     vertex  4.178640e-01  4.230423e-02  0.000000e+00
   endloop
 endfacet
 facet normal  9.683561e-01  2.495724e-01 -1.757218e-04
   outer loop
     vertex  4.105094e-01  8.878070e-02  1.200000e+00
     vertex  4.114779e-01  8.417817e-02  0.000000e+00
     vertex  4.009065e-01  1.251959e-01  0.000000e+00
   endloop
 endfacet
 facet normal  9.872683e-01  1.590635e-01  1.866829e-04
   outer loop
     vertex  4.105094e-01  8.878070e-02  1.200000e+00
     vertex  4.176206e-01  4.464326e-02  1.200000e+00
     vertex  4.114779e-01  8.417817e-02  0.000000e+00
   endloop
 endfacet
 facet normal  9.647678e-01  2.631026e-01  2.635809e-04
   outer loop
     vertex  3.987470e-01  1.319122e-01  1.200000e+00
     vertex  4.105094e-01  8.878070e-02  1.200000e+00
     vertex  4.009065e-01  1.251959e-01  0.000000e+00
   endloop
 endfacet
 facet normal  9.382934e-01  3.458402e-01 -2.471373e-04
   outer loop
     vertex  3.987470e-01  1.319122e-01  1.200000e+00
     vertex  4.009065e-01  1.251959e-01  0.000000e+00
     vertex  3.862573e-01  1.649403e-01  0.000000e+00
   endloop
 endfacet
 facet normal  9.313361e-01  3.641606e-01  3.295133e-04
   outer loop
     vertex  3.824666e-01  1.735491e-01  1.200000e+00
     vertex  3.987470e-01  1.319122e-01  1.200000e+00
     vertex  3.862573e-01  1.649403e-01  0.000000e+00
   endloop
 endfacet
 facet normal  8.986871e-01  4.385903e-01 -3.075860e-04
   outer loop
     vertex  3.824666e-01  1.735491e-01  1.200000e+00
     vertex  3.862573e-01  1.649403e-01  0.000000e+00
     vertex  3.676795e-01  2.030069e-01  0.000000e+00
   endloop
 endfacet
 facet normal  8.873520e-01  4.610925e-01  3.844780e-04
   outer loop
     vertex  3.618527e-01  2.132196e-01  1.200000e+00
     vertex  3.824666e-01  1.735491e-01  1.200000e+00
     vertex  3.676795e-01  2.030069e-01  0.000000e+00
   endloop
 endfacet
 facet normal  8.499399e-01  5.268795e-01 -3.570662e-04
   outer loop
     vertex  3.618527e-01  2.132196e-01  1.200000e+00
     vertex  3.676795e-01  2.030069e-01  0.000000e+00
     vertex  3.453618e-01  2.390088e-01  0.000000e+00
   endloop
 endfacet
 facet normal  8.333138e-01  5.528000e-01  4.284733e-04
   outer loop
     vertex  3.371389e-01  2.504743e-01  1.200000e+00
     vertex  3.618527e-01  2.132196e-01  1.200000e+00
     vertex  3.453618e-01  2.390088e-01  0.000000e+00
   endloop
 endfacet
 facet normal  7.925478e-01  6.098096e-01 -3.955763e-04
   outer loop
     vertex  3.371389e-01  2.504743e-01  1.200000e+00
     vertex  3.453618e-01  2.390088e-01  0.000000e+00
     vertex  3.195314e-01  2.725796e-01  0.000000e+00
   endloop
 endfacet
 facet normal  7.698339e-01  6.382441e-01  4.614978e-04
   outer loop
     vertex  3.086051e-01  2.848910e-01  1.200000e+00
     vertex  3.371389e-01  2.504743e-01  1.200000e+00
     vertex  3.195314e-01  2.725796e-01  0.000000e+00
   endloop
 endfacet
 facet normal  7.270945e-01  6.865372e-01 -4.231150e-04
   outer loop
     vertex  3.086051e-01  2.848910e-01  1.200000e+00
     vertex  3.195314e-01  2.725796e-01  0.000000e+00
     vertex  2.904510e-01  3.033780e-01  0.000000e+00
   endloop
 endfacet
 facet normal  6.976314e-01  7.164567e-01  4.835505e-04
   outer loop
     vertex  2.765748e-01  3.160797e-01  1.200000e+00
     vertex  3.086051e-01  2.848910e-01  1.200000e+00
     vertex  2.904510e-01  3.033780e-01  0.000000e+00
   endloop
 endfacet
 facet normal  6.542458e-01  7.562819e-01 -4.396815e-04
   outer loop
     vertex  2.765748e-01  3.160797e-01  1.200000e+00
     vertex  2.904510e-01  3.033780e-01  0.000000e+00
     vertex  2.584163e-01  3.310906e-01  0.000000e+00
   endloop
 endfacet
 facet normal  6.175245e-01  7.865515e-01  4.946307e-04
   outer loop
     vertex  2.414107e-01  3.436872e-01  1.200000e+00
     vertex  2.765748e-01  3.160797e-01  1.200000e+00
     vertex  2.584163e-01  3.310906e-01  0.000000e+00
   endloop
 endfacet
 facet normal  5.747425e-01  8.183342e-01 -4.452752e-04
   outer loop
     vertex  2.414107e-01  3.436872e-01  1.200000e+00
     vertex  2.584163e-01  3.310906e-01  0.000000e+00
     vertex  2.237532e-01  3.554356e-01  0.000000e+00
   endloop
 endfacet
 facet normal  5.304208e-01  8.477343e-01  4.947380e-04
   outer loop
     vertex  2.035114e-01  3.674005e-01  1.200000e+00
     vertex  2.414107e-01  3.436872e-01  1.200000e+00
     vertex  2.237532e-01  3.554356e-01  0.000000e+00
   endloop
 endfacet
 facet normal  4.893934e-01  8.720630e-01 -4.398961e-04
   outer loop
     vertex  2.035114e-01  3.674005e-01  1.200000e+00
     vertex  2.237532e-01  3.554356e-01  0.000000e+00
     vertex  1.868143e-01  3.761654e-01  0.000000e+00
   endloop
 endfacet
 facet normal  3.282245e-01  9.445995e-01 -7.247409e-04
   outer loop
     vertex  1.324011e-01  3.985849e-01  1.357952e-01
     vertex  1.479752e-01  3.930691e-01  0.000000e+00
     vertex  1.313763e-01  3.989239e-01  1.134507e-01
   endloop
 endfacet
 facet normal  3.173998e-01  9.482885e-01 -2.498890e-03
   outer loop
     vertex  1.265527e-01  4.004802e-01  9.139043e-02
     vertex  1.313763e-01  3.989239e-01  1.134507e-01
     vertex  1.479752e-01  3.930691e-01  0.000000e+00
   endloop
 endfacet
 facet normal  3.043572e-01  9.525397e-01 -5.900900e-03
   outer loop
     vertex  1.179597e-01  4.030949e-01  7.024643e-02
     vertex  1.265527e-01  4.004802e-01  9.139043e-02
     vertex  1.479752e-01  3.930691e-01  0.000000e+00
   endloop
 endfacet
 facet normal  3.046757e-01  9.524388e-01 -5.750378e-03
   outer loop
     vertex  1.076310e-01  4.059748e-01  0.000000e+00
     vertex  1.179597e-01  4.030949e-01  7.024643e-02
     vertex  1.479752e-01  3.930691e-01  0.000000e+00
   endloop
 endfacet
 facet normal  4.373073e-01  8.993120e-01  4.838724e-04
   outer loop
     vertex  1.633062e-01  3.869510e-01  1.200000e+00
     vertex  2.035114e-01  3.674005e-01  1.200000e+00
     vertex  1.868143e-01  3.761654e-01  0.000000e+00
   endloop
 endfacet
 facet normal  3.376071e-01  9.412870e-01  4.858730e-04
   outer loop
     vertex  1.633062e-01  3.869510e-01  1.200000e+00
     vertex  1.479752e-01  3.930691e-01  0.000000e+00
     vertex  1.324011e-01  3.985849e-01  1.357952e-01
   endloop
 endfacet
 facet normal  3.990666e-01  9.169218e-01 -4.235442e-04
   outer loop
     vertex  1.633062e-01  3.869510e-01  1.200000e+00
     vertex  1.868143e-01  3.761654e-01  0.000000e+00
     vertex  1.479752e-01  3.930691e-01  0.000000e+00
   endloop
 endfacet
 facet normal  2.344258e-01  9.721337e-01 -7.624996e-04
   outer loop
     vertex  9.042447e-02  4.101505e-01  3.361425e-02
     vertex  1.057836e-01  4.064601e-01  5.074352e-02
     vertex  1.076310e-01  4.059748e-01  0.000000e+00
   endloop
 endfacet
 facet normal  2.071711e-01  9.781825e-01 -1.546511e-02
   outer loop
     vertex  6.619210e-02  4.147513e-01  0.000000e+00
     vertex  9.042447e-02  4.101505e-01  3.361425e-02
     vertex  1.076310e-01  4.059748e-01  0.000000e+00
   endloop
 endfacet
 facet normal  1.975537e-01  9.802574e-01 -8.247952e-03
   outer loop
     vertex  6.619210e-02  4.147513e-01  0.000000e+00
     vertex  7.032748e-02  4.140701e-01  1.809486e-02
     vertex  9.042447e-02  4.101505e-01  3.361425e-02
   endloop
 endfacet
 facet normal  3.392388e-01  9.407002e-01  4.320712e-04
   outer loop
     vertex  1.212506e-01  4.021173e-01  1.200000e+00
     vertex  1.633062e-01  3.869510e-01  1.200000e+00
     vertex  1.324011e-01  3.985849e-01  1.357952e-01
   endloop
 endfacet
 facet normal  3.121619e-01  9.500289e-01  1.174017e-04
   outer loop
     vertex  1.212506e-01  4.021173e-01  1.200000e+00
     vertex  1.324011e-01  3.985849e-01  1.357952e-01
     vertex  1.291393e-01  3.996537e-01  1.603098e-01
   endloop
 endfacet
 facet normal  2.982038e-01  9.545022e-01  8.937100e-07
   outer loop
     vertex  1.212506e-01  4.021173e-01  1.200000e+00
     vertex  1.291393e-01  3.996537e-01  1.603098e-01
     vertex  1.213403e-01  4.020902e-01  1.838360e-01
   endloop
 endfacet
 facet normal  2.744401e-01  9.616042e-01 -1.391555e-06
   outer loop
     vertex  1.212506e-01  4.021173e-01  1.200000e+00
     vertex  1.213403e-01  4.020902e-01  1.838360e-01
     vertex  1.091631e-01  4.055656e-01  2.056454e-01
   endloop
 endfacet
 facet normal  2.411319e-01  9.704923e-01  4.343305e-04
   outer loop
     vertex  1.212506e-01  4.021173e-01  1.200000e+00
     vertex  1.091631e-01  4.055656e-01  2.056454e-01
     vertex  9.293984e-02  4.095878e-01  2.249108e-01
   endloop
 endfacet
 facet normal  1.072877e-01  9.912755e-01 -7.656491e-02
   outer loop
     vertex  2.407993e-02  4.193091e-01  0.000000e+00
     vertex  4.800633e-02  4.172474e-01  6.834131e-03
     vertex  6.619210e-02  4.147513e-01  0.000000e+00
   endloop
 endfacet
 facet normal  2.373267e-01  9.714297e-01  5.519940e-04
   outer loop
     vertex  7.782126e-02  4.127273e-01  1.200000e+00
     vertex  1.212506e-01  4.021173e-01  1.200000e+00
     vertex  9.293984e-02  4.095878e-01  2.249108e-01
   endloop
 endfacet
 facet normal  1.978477e-01  9.802328e-01 -8.846290e-05
   outer loop
     vertex  7.782126e-02  4.127273e-01  1.200000e+00
     vertex  9.293984e-02  4.095878e-01  2.249108e-01
     vertex  7.326334e-02  4.135607e-01  2.408024e-01
   endloop
 endfacet
 facet normal  1.507781e-01  9.885676e-01  1.424446e-04
   outer loop
     vertex  7.782126e-02  4.127273e-01  1.200000e+00
     vertex  7.326334e-02  4.135607e-01  2.408024e-01
     vertex  5.328963e-02  4.166056e-01  2.516550e-01
   endloop
 endfacet
 facet normal  1.327255e-01  9.911526e-01  6.199977e-04
   outer loop
     vertex  3.351016e-02  4.186610e-01  1.200000e+00
     vertex  7.782126e-02  4.127273e-01  1.200000e+00
     vertex  5.328963e-02  4.166056e-01  2.516550e-01
   endloop
 endfacet
 facet normal  1.014054e-01  9.948452e-01 -4.124315e-05
   outer loop
     vertex  3.351016e-02  4.186610e-01  1.200000e+00
     vertex  5.328963e-02  4.166056e-01  2.516550e-01
     vertex  3.187448e-02  4.187888e-01  2.589121e-01
   endloop
 endfacet
 facet normal  4.947416e-02  9.987754e-01  4.955062e-05
   outer loop
     vertex  3.351016e-02  4.186610e-01  1.200000e+00
     vertex  3.187448e-02  4.187888e-01  2.589121e-01
     vertex  9.663346e-03  4.198888e-01  2.624300e-01
   endloop
 endfacet
 facet normal -1.298338e-01  9.914412e-01 -1.369695e-02
   outer loop
     vertex -6.822382e-02  4.144219e-01  0.000000e+00
     vertex -6.111796e-02  4.155293e-01  1.280135e-02
     vertex -4.304501e-02  4.177884e-01  5.008551e-03
   endloop
 endfacet
 facet normal -1.093203e-01  9.874331e-01 -1.141273e-01
   outer loop
     vertex -6.822382e-02  4.144219e-01  0.000000e+00
     vertex -4.304501e-02  4.177884e-01  5.008551e-03
     vertex -2.407993e-02  4.193091e-01  0.000000e+00
   endloop
 endfacet
 facet normal  2.662052e-02  9.996454e-01  6.319657e-04
   outer loop
     vertex -1.118062e-02  4.198512e-01  1.200000e+00
     vertex  3.351016e-02  4.186610e-01  1.200000e+00
     vertex  9.663346e-03  4.198888e-01  2.624300e-01
   endloop
 endfacet
 facet normal -6.637600e-03  9.999780e-01 -1.074121e-04
   outer loop
     vertex -1.118062e-02  4.198512e-01  1.200000e+00
     vertex  9.663346e-03  4.198888e-01  2.624300e-01
     vertex -1.523826e-02  4.197235e-01  2.619067e-01
   endloop
 endfacet
 facet normal -6.539090e-02  9.978597e-01  1.470086e-04
   outer loop
     vertex -1.118062e-02  4.198512e-01  1.200000e+00
     vertex -1.523826e-02  4.197235e-01  2.619067e-01
     vertex -3.964180e-02  4.181250e-01  2.567464e-01
   endloop
 endfacet
 facet normal -2.143438e-01  9.765778e-01 -1.877808e-02
   outer loop
     vertex -1.116048e-01  4.049004e-01  0.000000e+00
     vertex -8.033929e-02  4.122446e-01  2.505888e-02
     vertex -6.822382e-02  4.144219e-01  0.000000e+00
   endloop
 endfacet
 facet normal -2.216444e-01  9.750839e-01 -9.231331e-03
   outer loop
     vertex -1.116048e-01  4.049004e-01  0.000000e+00
     vertex -9.892430e-02  4.081838e-01  4.235036e-02
     vertex -8.033929e-02  4.122446e-01  2.505888e-02
   endloop
 endfacet
 facet normal -1.219264e-01  9.925391e-01 -1.444663e-04
   outer loop
     vertex -5.574472e-02  4.162842e-01  1.200000e+00
     vertex -3.964180e-02  4.181250e-01  2.567464e-01
     vertex -6.278623e-02  4.152805e-01  2.470477e-01
   endloop
 endfacet
 facet normal -1.747818e-01  9.846072e-01  2.544441e-04
   outer loop
     vertex -5.574472e-02  4.162842e-01  1.200000e+00
     vertex -6.278623e-02  4.152805e-01  2.470477e-01
     vertex -8.384575e-02  4.115457e-01  2.330341e-01
   endloop
 endfacet
 facet normal -7.978609e-02  9.968118e-01  5.832784e-04
   outer loop
     vertex -5.574472e-02  4.162842e-01  1.200000e+00
     vertex -1.118062e-02  4.198512e-01  1.200000e+00
     vertex -3.964180e-02  4.181250e-01  2.567464e-01
   endloop
 endfacet
 facet normal -2.850453e-01  9.585138e-01 -6.390002e-04
   outer loop
     vertex -1.245415e-01  4.011102e-01  8.540104e-02
     vertex -1.138317e-01  4.042800e-01  6.275850e-02
     vertex -1.116048e-01  4.049004e-01  0.000000e+00
   endloop
 endfacet
 facet normal -3.327339e-01  9.430197e-01 -1.450623e-03
   outer loop
     vertex -1.537378e-01  3.908512e-01  0.000000e+00
     vertex -1.324543e-01  3.985673e-01  1.341576e-01
     vertex -1.307889e-01  3.991169e-01  1.094415e-01
   endloop
 endfacet
 facet normal -3.197139e-01  9.475034e-01 -4.519435e-03
   outer loop
     vertex -1.537378e-01  3.908512e-01  0.000000e+00
     vertex -1.307889e-01  3.991169e-01  1.094415e-01
     vertex -1.245415e-01  4.011102e-01  8.540104e-02
   endloop
 endfacet
 facet normal -3.163212e-01  9.486343e-01 -5.815174e-03
   outer loop
     vertex -1.537378e-01  3.908512e-01  0.000000e+00
     vertex -1.245415e-01  4.011102e-01  8.540104e-02
     vertex -1.116048e-01  4.049004e-01  0.000000e+00
   endloop
 endfacet
 facet normal -1.852887e-01  9.826840e-01  5.692104e-04
   outer loop
     vertex -9.967721e-02  4.080006e-01  1.200000e+00
     vertex -5.574472e-02  4.162842e-01  1.200000e+00
     vertex -8.384575e-02  4.115457e-01  2.330341e-01
   endloop
 endfacet
 facet normal -2.192416e-01  9.756706e-01 -1.239061e-05
   outer loop
     vertex -9.967721e-02  4.080006e-01  1.200000e+00
     vertex -8.384575e-02  4.115457e-01  2.330341e-01
     vertex -1.002893e-01  4.078505e-01  2.170982e-01
   endloop
 endfacet
 facet normal -2.548331e-01  9.669850e-01  1.109999e-05
   outer loop
     vertex -9.967721e-02  4.080006e-01  1.200000e+00
     vertex -1.002893e-01  4.078505e-01  2.170982e-01
     vertex -1.137295e-01  4.043088e-01  1.985552e-01
   endloop
 endfacet
 facet normal -2.886919e-01  9.574219e-01  5.214604e-04
   outer loop
     vertex -1.424803e-01  3.950941e-01  1.200000e+00
     vertex -9.967721e-02  4.080006e-01  1.200000e+00
     vertex -1.137295e-01  4.043088e-01  1.985552e-01
   endloop
 endfacet
 facet normal -3.400782e-01  9.403971e-01 -1.346375e-04
   outer loop
     vertex -1.424803e-01  3.950941e-01  1.200000e+00
     vertex -1.324543e-01  3.985673e-01  1.341576e-01
     vertex -1.537378e-01  3.908512e-01  0.000000e+00
   endloop
 endfacet
 facet normal -2.839517e-01  9.588384e-01  6.705832e-04
   outer loop
     vertex -1.424803e-01  3.950941e-01  1.200000e+00
     vertex -1.137295e-01  4.043088e-01  1.985552e-01
     vertex -1.237081e-01  4.013680e-01  1.780865e-01
   endloop
 endfacet
 facet normal -3.029127e-01  9.530183e-01  2.865423e-04
   outer loop
     vertex -1.424803e-01  3.950941e-01  1.200000e+00
     vertex -1.237081e-01  4.013680e-01  1.780865e-01
     vertex -1.299751e-01  3.993826e-01  1.564052e-01
   endloop
 endfacet
 facet normal -3.135897e-01  9.495586e-01  1.443852e-04
   outer loop
     vertex -1.424803e-01  3.950941e-01  1.200000e+00
     vertex -1.299751e-01  3.993826e-01  1.564052e-01
     vertex -1.324543e-01  3.985673e-01  1.341576e-01
   endloop
 endfacet
 facet normal -4.147341e-01  9.099426e-01 -3.806236e-04
   outer loop
     vertex -1.836691e-01  3.777111e-01  1.200000e+00
     vertex -1.537378e-01  3.908512e-01  0.000000e+00
     vertex -1.941516e-01  3.724314e-01  0.000000e+00
   endloop
 endfacet
 facet normal -3.888241e-01  9.213119e-01  3.901385e-04
   outer loop
     vertex -1.836691e-01  3.777111e-01  1.200000e+00
     vertex -1.424803e-01  3.950941e-01  1.200000e+00
     vertex -1.537378e-01  3.908512e-01  0.000000e+00
   endloop
 endfacet
 facet normal -5.085041e-01  8.610595e-01 -3.744373e-04
   outer loop
     vertex -2.227768e-01  3.560485e-01  1.200000e+00
     vertex -1.941516e-01  3.724314e-01  0.000000e+00
     vertex -2.323944e-01  3.498469e-01  0.000000e+00
   endloop
 endfacet
 facet normal -4.845508e-01  8.747630e-01  3.840377e-04
   outer loop
     vertex -2.227768e-01  3.560485e-01  1.200000e+00
     vertex -1.836691e-01  3.777111e-01  1.200000e+00
     vertex -1.941516e-01  3.724314e-01  0.000000e+00
   endloop
 endfacet
 facet normal -5.965878e-01  8.025478e-01 -3.680804e-04
   outer loop
     vertex -2.593603e-01  3.303517e-01  1.200000e+00
     vertex -2.323944e-01  3.498469e-01  0.000000e+00
     vertex -2.680384e-01  3.233503e-01  0.000000e+00
   endloop
 endfacet
 facet normal -5.747874e-01  8.183027e-01  3.777661e-04
   outer loop
     vertex -2.593603e-01  3.303517e-01  1.200000e+00
     vertex -2.227768e-01  3.560485e-01  1.200000e+00
     vertex -2.323944e-01  3.498469e-01  0.000000e+00
   endloop
 endfacet
 facet normal -6.780002e-01  7.350616e-01 -3.615526e-04
   outer loop
     vertex -2.930052e-01  3.009118e-01  1.200000e+00
     vertex -2.680384e-01  3.233503e-01  0.000000e+00
     vertex -3.006852e-01  2.932379e-01  0.000000e+00
   endloop
 endfacet
 facet normal -6.585113e-01  7.525707e-01  3.713237e-04
   outer loop
     vertex -2.930052e-01  3.009118e-01  1.200000e+00
     vertex -2.593603e-01  3.303517e-01  1.200000e+00
     vertex -2.680384e-01  3.233503e-01  0.000000e+00
   endloop
 endfacet
 facet normal -7.518310e-01  6.593558e-01 -3.548540e-04
   outer loop
     vertex -3.233303e-01  2.680626e-01  1.200000e+00
     vertex -3.006852e-01  2.932379e-01  0.000000e+00
     vertex -3.299695e-01  2.598463e-01  0.000000e+00
   endloop
 endfacet
 facet normal -7.347741e-01  6.783118e-01  3.647105e-04
   outer loop
     vertex -3.233303e-01  2.680626e-01  1.200000e+00
     vertex -2.930052e-01  3.009118e-01  1.200000e+00
     vertex -3.006852e-01  2.932379e-01  0.000000e+00
   endloop
 endfacet
 facet normal -8.172545e-01  5.762768e-01 -3.479847e-04
   outer loop
     vertex -3.499918e-01  2.321760e-01  1.200000e+00
     vertex -3.299695e-01  2.598463e-01  0.000000e+00
     vertex -3.555641e-01  2.235491e-01  0.000000e+00
   endloop
 endfacet
 facet normal -8.027116e-01  5.963673e-01  3.579266e-04
   outer loop
     vertex -3.499918e-01  2.321760e-01  1.200000e+00
     vertex -3.233303e-01  2.680626e-01  1.200000e+00
     vertex -3.299695e-01  2.598463e-01  0.000000e+00
   endloop
 endfacet
 facet normal -8.735392e-01  4.867537e-01 -3.409446e-04
   outer loop
     vertex -3.726879e-01  1.936589e-01  1.200000e+00
     vertex -3.555641e-01  2.235491e-01  0.000000e+00
     vertex -3.771825e-01  1.847521e-01  0.000000e+00
   endloop
 endfacet
 facet normal -8.615540e-01  5.076658e-01  3.509719e-04
   outer loop
     vertex -3.726879e-01  1.936589e-01  1.200000e+00
     vertex -3.499918e-01  2.321760e-01  1.200000e+00
     vertex -3.555641e-01  2.235491e-01  0.000000e+00
   endloop
 endfacet
 facet normal -9.200557e-01  3.917875e-01 -3.337337e-04
   outer loop
     vertex -3.911612e-01  1.529474e-01  1.200000e+00
     vertex -3.771825e-01  1.847521e-01  0.000000e+00
     vertex -3.945832e-01  1.438891e-01  0.000000e+00
   endloop
 endfacet
 facet normal -9.106347e-01  4.132122e-01  3.438464e-04
   outer loop
     vertex -3.911612e-01  1.529474e-01  1.200000e+00
     vertex -3.726879e-01  1.936589e-01  1.200000e+00
     vertex -3.771825e-01  1.847521e-01  0.000000e+00
   endloop
 endfacet
 facet normal -9.562838e-01  2.924402e-01 -3.263521e-04
   outer loop
     vertex -4.052025e-01  1.105031e-01  1.200000e+00
     vertex -3.945832e-01  1.438891e-01  0.000000e+00
     vertex -4.075716e-01  1.014171e-01  0.000000e+00
   endloop
 endfacet
 facet normal -9.493976e-01  3.140767e-01  3.365501e-04
   outer loop
     vertex -4.052025e-01  1.105031e-01  1.200000e+00
     vertex -3.911612e-01  1.529474e-01  1.200000e+00
     vertex -3.945832e-01  1.438891e-01  0.000000e+00
   endloop
 endfacet
 facet normal -9.818183e-01  1.898227e-01 -3.187997e-04
   outer loop
     vertex -4.146527e-01  6.680667e-02  1.200000e+00
     vertex -4.075716e-01  1.014171e-01  0.000000e+00
     vertex -4.160023e-01  5.781099e-02  0.000000e+00
   endloop
 endfacet
 facet normal -9.774033e-01  2.113826e-01  3.290831e-04
   outer loop
     vertex -4.146527e-01  6.680667e-02  1.200000e+00
     vertex -4.052025e-01  1.105031e-01  1.200000e+00
     vertex -4.075716e-01  1.014171e-01  0.000000e+00
   endloop
 endfacet
 facet normal -9.963739e-01  8.508261e-02 -3.110765e-04
   outer loop
     vertex -4.194047e-01  2.235331e-02  1.200000e+00
     vertex -4.160023e-01  5.781099e-02  0.000000e+00
     vertex -4.197811e-01  1.355843e-02  0.000000e+00
   endloop
 endfacet
 facet normal -9.943347e-01  1.062935e-01  3.214453e-04
   outer loop
     vertex -4.194047e-01  2.235331e-02  1.200000e+00
     vertex -4.146527e-01  6.680667e-02  1.200000e+00
     vertex -4.160023e-01  5.781099e-02  0.000000e+00
   endloop
 endfacet
 facet normal -9.997876e-01 -2.060895e-02 -3.031826e-04
   outer loop
     vertex -4.194047e-01 -2.235331e-02  1.200000e+00
     vertex -4.197811e-01  1.355843e-02  0.000000e+00
     vertex -4.188658e-01 -3.084574e-02  0.000000e+00
   endloop
 endfacet
 facet normal -1.000000e+00  1.241676e-15  3.136368e-04
   outer loop
     vertex -4.194047e-01 -2.235331e-02  1.200000e+00
     vertex -4.194047e-01  2.235331e-02  1.200000e+00
     vertex -4.197811e-01  1.355843e-02  0.000000e+00
   endloop
 endfacet
 facet normal -9.920213e-01 -1.260700e-01 -2.951179e-04
   outer loop
     vertex -4.146527e-01 -6.680667e-02  1.200000e+00
     vertex -4.188658e-01 -3.084574e-02  0.000000e+00
     vertex -4.132666e-01 -7.490498e-02  0.000000e+00
   endloop
 endfacet
 facet normal -9.943348e-01 -1.062935e-01  3.056575e-04
   outer loop
     vertex -4.146527e-01 -6.680667e-02  1.200000e+00
     vertex -4.194047e-01 -2.235331e-02  1.200000e+00
     vertex -4.188658e-01 -3.084574e-02  0.000000e+00
   endloop
 endfacet
 facet normal -9.731619e-01 -2.301214e-01 -2.868825e-04
   outer loop
     vertex -4.052025e-01 -1.105031e-01  1.200000e+00
     vertex -4.132666e-01 -7.490498e-02  0.000000e+00
     vertex -4.030460e-01 -1.181266e-01  0.000000e+00
   endloop
 endfacet
 facet normal -9.774033e-01 -2.113826e-01  2.975074e-04
   outer loop
     vertex -4.052025e-01 -1.105031e-01  1.200000e+00
     vertex -4.146527e-01 -6.680667e-02  1.200000e+00
     vertex -4.132666e-01 -7.490498e-02  0.000000e+00
   endloop
 endfacet
 facet normal -9.434202e-01 -3.315994e-01 -2.784763e-04
   outer loop
     vertex -3.911612e-01 -1.529474e-01  1.200000e+00
     vertex -4.030460e-01 -1.181266e-01  0.000000e+00
     vertex -3.883185e-01 -1.600273e-01  0.000000e+00
   endloop
 endfacet
 facet normal -9.493976e-01 -3.140767e-01  2.891866e-04
   outer loop
     vertex -3.911612e-01 -1.529474e-01  1.200000e+00
     vertex -4.052025e-01 -1.105031e-01  1.200000e+00
     vertex -4.030460e-01 -1.181266e-01  0.000000e+00
   endloop
 endfacet
 facet normal -9.031289e-01 -4.293694e-01 -2.698994e-04
   outer loop
     vertex -3.726879e-01 -1.936589e-01  1.200000e+00
     vertex -3.883185e-01 -1.600273e-01  0.000000e+00
     vertex -3.692487e-01 -2.001385e-01  0.000000e+00
   endloop
 endfacet
 facet normal -9.106347e-01 -4.132122e-01  2.806951e-04
   outer loop
     vertex -3.726879e-01 -1.936589e-01  1.200000e+00
     vertex -3.911612e-01 -1.529474e-01  1.200000e+00
     vertex -3.883185e-01 -1.600273e-01  0.000000e+00
   endloop
 endfacet
 facet normal -8.527385e-01 -5.223380e-01 -2.611518e-04
   outer loop
     vertex -3.499918e-01 -2.321760e-01  1.200000e+00
     vertex -3.692487e-01 -2.001385e-01  0.000000e+00
     vertex -3.460497e-01 -2.380117e-01  0.000000e+00
   endloop
 endfacet
 facet normal -8.615540e-01 -5.076658e-01  2.720328e-04
   outer loop
     vertex -3.499918e-01 -2.321760e-01  1.200000e+00
     vertex -3.726879e-01 -1.936589e-01  1.200000e+00
     vertex -3.692487e-01 -2.001385e-01  0.000000e+00
   endloop
 endfacet
 facet normal -7.928124e-01 -6.094657e-01 -2.522334e-04
   outer loop
     vertex -3.233303e-01 -2.680626e-01  1.200000e+00
     vertex -3.460497e-01 -2.380117e-01  0.000000e+00
     vertex -3.189812e-01 -2.732234e-01  0.000000e+00
   endloop
 endfacet
 facet normal -8.027116e-01 -5.963673e-01  2.631998e-04
   outer loop
     vertex -3.233303e-01 -2.680626e-01  1.200000e+00
     vertex -3.499918e-01 -2.321760e-01  1.200000e+00
     vertex -3.460497e-01 -2.380117e-01  0.000000e+00
   endloop
 endfacet
 facet normal -7.347741e-01 -6.783118e-01  2.541961e-04
   outer loop
     vertex -2.930052e-01 -3.009118e-01  1.200000e+00
     vertex -3.233303e-01 -2.680626e-01  1.200000e+00
     vertex -3.189812e-01 -2.732234e-01  0.000000e+00
   endloop
 endfacet
 facet normal -7.240209e-01 -6.897780e-01 -2.431443e-04
   outer loop
     vertex -2.930052e-01 -3.009118e-01  1.200000e+00
     vertex -3.189812e-01 -2.732234e-01  0.000000e+00
     vertex -2.883457e-01 -3.053797e-01  0.000000e+00
   endloop
 endfacet
 facet normal -6.585114e-01 -7.525707e-01  2.450216e-04
   outer loop
     vertex -2.593603e-01 -3.303517e-01  1.200000e+00
     vertex -2.930052e-01 -3.009118e-01  1.200000e+00
     vertex -2.883457e-01 -3.053797e-01  0.000000e+00
   endloop
 endfacet
 facet normal -6.471330e-01 -7.623771e-01 -2.338845e-04
   outer loop
     vertex -2.593603e-01 -3.303517e-01  1.200000e+00
     vertex -2.883457e-01 -3.053797e-01  0.000000e+00
     vertex -2.544857e-01 -3.341212e-01  0.000000e+00
   endloop
 endfacet
 facet normal -5.747874e-01 -8.183028e-01  2.356764e-04
   outer loop
     vertex -2.227768e-01 -3.560485e-01  1.200000e+00
     vertex -2.593603e-01 -3.303517e-01  1.200000e+00
     vertex -2.544857e-01 -3.341212e-01  0.000000e+00
   endloop
 endfacet
 facet normal -5.630087e-01 -8.264509e-01 -2.244539e-04
   outer loop
     vertex -2.227768e-01 -3.560485e-01  1.200000e+00
     vertex -2.544857e-01 -3.341212e-01  0.000000e+00
     vertex -2.177801e-01 -3.591265e-01  0.000000e+00
   endloop
 endfacet
 facet normal -4.845509e-01 -8.747631e-01  2.261605e-04
   outer loop
     vertex -1.836691e-01 -3.777111e-01  1.200000e+00
     vertex -2.227768e-01 -3.560485e-01  1.200000e+00
     vertex -2.177801e-01 -3.591265e-01  0.000000e+00
   endloop
 endfacet
 facet normal -4.725886e-01 -8.812831e-01 -2.148527e-04
   outer loop
     vertex -1.836691e-01 -3.777111e-01  1.200000e+00
     vertex -2.177801e-01 -3.591265e-01  0.000000e+00
     vertex -1.786391e-01 -3.801159e-01  0.000000e+00
   endloop
 endfacet
 facet normal -2.766256e-01 -9.609757e-01 -1.991758e-03
   outer loop
     vertex -1.086014e-01 -4.057163e-01  2.618964e-01
     vertex -1.114707e-01 -4.049374e-01  2.845729e-01
     vertex -1.375005e-01 -3.968546e-01  0.000000e+00
   endloop
 endfacet
 facet normal -2.769642e-01 -9.608783e-01 -1.951098e-03
   outer loop
     vertex -9.482440e-02 -4.091556e-01  0.000000e+00
     vertex -1.086014e-01 -4.057163e-01  2.618964e-01
     vertex -1.375005e-01 -3.968546e-01  0.000000e+00
   endloop
 endfacet
 facet normal -2.510464e-01 -9.679749e-01 -4.944989e-04
   outer loop
     vertex -1.011425e-01 -4.076398e-01  2.402877e-01
     vertex -1.086014e-01 -4.057163e-01  2.618964e-01
     vertex -9.482440e-02 -4.091556e-01  0.000000e+00
   endloop
 endfacet
 facet normal -3.888242e-01 -9.213120e-01  2.164739e-04
   outer loop
     vertex -1.424803e-01 -3.950941e-01  1.200000e+00
     vertex -1.836691e-01 -3.777111e-01  1.200000e+00
     vertex -1.786391e-01 -3.801159e-01  0.000000e+00
   endloop
 endfacet
 facet normal -2.981752e-01 -9.545112e-01  1.629924e-04
   outer loop
     vertex -1.424803e-01 -3.950941e-01  1.200000e+00
     vertex -1.375005e-01 -3.968546e-01  0.000000e+00
     vertex -1.114707e-01 -4.049374e-01  2.845729e-01
   endloop
 endfacet
 facet normal -3.768839e-01 -9.262605e-01 -2.050807e-04
   outer loop
     vertex -1.424803e-01 -3.950941e-01  1.200000e+00
     vertex -1.786391e-01 -3.801159e-01  0.000000e+00
     vertex -1.375005e-01 -3.968546e-01  0.000000e+00
   endloop
 endfacet
 facet normal -2.765057e-01 -9.610118e-01  9.669337e-04
   outer loop
     vertex -1.424803e-01 -3.950941e-01  1.200000e+00
     vertex -1.114707e-01 -4.049374e-01  2.845729e-01
     vertex -1.100245e-01 -4.053327e-01  3.052211e-01
   endloop
 endfacet
 facet normal -2.264729e-01 -9.740175e-01  1.897555e-04
   outer loop
     vertex -8.932523e-02 -4.103913e-01  2.205756e-01
     vertex -1.011425e-01 -4.076398e-01  2.402877e-01
     vertex -9.482440e-02 -4.091556e-01  0.000000e+00
   endloop
 endfacet
 facet normal -1.946342e-01 -9.808757e-01 -6.424342e-04
   outer loop
     vertex -7.357974e-02 -4.135046e-01  2.036355e-01
     vertex -8.932523e-02 -4.103913e-01  2.205756e-01
     vertex -9.482440e-02 -4.091556e-01  0.000000e+00
   endloop
 endfacet
 facet normal -1.739477e-01 -9.847507e-01 -2.883347e-03
   outer loop
     vertex -5.108789e-02 -4.168813e-01  0.000000e+00
     vertex -7.357974e-02 -4.135046e-01  2.036355e-01
     vertex -9.482440e-02 -4.091556e-01  0.000000e+00
   endloop
 endfacet
 facet normal -1.529845e-01 -9.882285e-01 -5.102586e-04
   outer loop
     vertex -5.459965e-02 -4.164359e-01  1.902901e-01
     vertex -7.357974e-02 -4.135046e-01  2.036355e-01
     vertex -5.108789e-02 -4.168813e-01  0.000000e+00
   endloop
 endfacet
 facet normal -2.886919e-01 -9.574219e-01  4.838336e-04
   outer loop
     vertex -9.967721e-02 -4.080006e-01  1.200000e+00
     vertex -1.424803e-01 -3.950941e-01  1.200000e+00
     vertex -1.100245e-01 -4.053327e-01  3.052211e-01
   endloop
 endfacet
 facet normal -2.132357e-01 -9.770008e-01  9.451439e-05
   outer loop
     vertex -9.967721e-02 -4.080006e-01  1.200000e+00
     vertex -9.572226e-02 -4.089465e-01  3.444404e-01
     vertex -8.327164e-02 -4.116623e-01  3.614991e-01
   endloop
 endfacet
 facet normal -2.386013e-01 -9.711176e-01 -2.924705e-05
   outer loop
     vertex -9.967721e-02 -4.080006e-01  1.200000e+00
     vertex -1.047398e-01 -4.067303e-01  3.254217e-01
     vertex -9.572226e-02 -4.089465e-01  3.444404e-01
   endloop
 endfacet
 facet normal -2.559565e-01 -9.666883e-01  7.764836e-05
   outer loop
     vertex -9.967721e-02 -4.080006e-01  1.200000e+00
     vertex -1.100245e-01 -4.053327e-01  3.052211e-01
     vertex -1.047398e-01 -4.067303e-01  3.254217e-01
   endloop
 endfacet
 facet normal -1.071446e-01 -9.942434e-01  3.497849e-04
   outer loop
     vertex -3.550596e-02 -4.184965e-01  1.818790e-01
     vertex -5.459965e-02 -4.164359e-01  1.902901e-01
     vertex -5.108789e-02 -4.168813e-01  0.000000e+00
   endloop
 endfacet
 facet normal -6.898666e-02 -9.976132e-01 -2.949208e-03
   outer loop
     vertex -6.780101e-03 -4.199453e-01  0.000000e+00
     vertex -3.550596e-02 -4.184965e-01  1.818790e-01
     vertex -5.108789e-02 -4.168813e-01  0.000000e+00
   endloop
 endfacet
 facet normal -6.422154e-02 -9.979333e-01 -2.194057e-03
   outer loop
     vertex -6.780101e-03 -4.199453e-01  0.000000e+00
     vertex -1.797764e-02 -4.196151e-01  1.775703e-01
     vertex -3.550596e-02 -4.184965e-01  1.818790e-01
   endloop
 endfacet
 facet normal -1.852887e-01 -9.826839e-01  6.661252e-04
   outer loop
     vertex -5.574472e-02 -4.162842e-01  1.200000e+00
     vertex -9.967721e-02 -4.080006e-01  1.200000e+00
     vertex -8.327164e-02 -4.116623e-01  3.614991e-01
   endloop
 endfacet
 facet normal -8.398503e-02 -9.964669e-01  4.495645e-04
   outer loop
     vertex -5.574472e-02 -4.162842e-01  1.200000e+00
     vertex -4.607653e-02 -4.174649e-01  3.890750e-01
     vertex -2.432023e-02 -4.192953e-01  3.964163e-01
   endloop
 endfacet
 facet normal -1.334165e-01 -9.910600e-01 -1.476508e-04
   outer loop
     vertex -5.574472e-02 -4.162842e-01  1.200000e+00
     vertex -6.603354e-02 -4.147765e-01  3.772957e-01
     vertex -4.607653e-02 -4.174649e-01  3.890750e-01
   endloop
 endfacet
 facet normal -1.781607e-01 -9.840013e-01  4.248595e-04
   outer loop
     vertex -5.574472e-02 -4.162842e-01  1.200000e+00
     vertex -8.327164e-02 -4.116623e-01  3.614991e-01
     vertex -6.603354e-02 -4.147765e-01  3.772957e-01
   endloop
 endfacet
 facet normal -2.136585e-02 -9.997716e-01  5.118303e-04
   outer loop
     vertex -1.084425e-17 -4.200000e-01  1.761241e-01
     vertex -1.797764e-02 -4.196151e-01  1.775703e-01
     vertex -6.780101e-03 -4.199453e-01  0.000000e+00
   endloop
 endfacet
 facet normal  2.741547e-02 -9.996232e-01 -1.366017e-03
   outer loop
     vertex  2.290248e-02 -4.193751e-01  1.784810e-01
     vertex -1.084425e-17 -4.200000e-01  1.761241e-01
     vertex -6.780101e-03 -4.199453e-01  0.000000e+00
   endloop
 endfacet
 facet normal  3.674577e-02 -9.993204e-01 -2.918676e-03
   outer loop
     vertex  3.760351e-02 -4.183133e-01  0.000000e+00
     vertex  2.290248e-02 -4.193751e-01  1.784810e-01
     vertex -6.780101e-03 -4.199453e-01  0.000000e+00
   endloop
 endfacet
 facet normal -7.978609e-02 -9.968118e-01  6.150582e-04
   outer loop
     vertex -1.118062e-02 -4.198512e-01  1.200000e+00
     vertex -5.574472e-02 -4.162842e-01  1.200000e+00
     vertex -2.432023e-02 -4.192953e-01  3.964163e-01
   endloop
 endfacet
 facet normal  2.058706e-02 -9.997880e-01  4.273174e-04
   outer loop
     vertex -1.118062e-02 -4.198512e-01  1.200000e+00
     vertex -1.631465e-03 -4.199968e-01  3.991121e-01
     vertex  1.889163e-02 -4.195749e-01  3.974981e-01
   endloop
 endfacet
 facet normal -3.088389e-02 -9.995230e-01 -1.864297e-04
   outer loop
     vertex -1.118062e-02 -4.198512e-01  1.200000e+00
     vertex -2.432023e-02 -4.192953e-01  3.964163e-01
     vertex -1.631465e-03 -4.199968e-01  3.991121e-01
   endloop
 endfacet
 facet normal  8.048883e-02 -9.967553e-01  6.995871e-04
   outer loop
     vertex  4.487060e-02 -4.175963e-01  1.854722e-01
     vertex  2.290248e-02 -4.193751e-01  1.784810e-01
     vertex  3.760351e-02 -4.183133e-01  0.000000e+00
   endloop
 endfacet
 facet normal  1.316394e-01 -9.912968e-01 -1.325674e-03
   outer loop
     vertex  6.505452e-02 -4.149312e-01  1.969028e-01
     vertex  4.487060e-02 -4.175963e-01  1.854722e-01
     vertex  3.760351e-02 -4.183133e-01  0.000000e+00
   endloop
 endfacet
 facet normal  1.420674e-01 -9.898530e-01 -2.804280e-03
   outer loop
     vertex  8.156662e-02 -4.120035e-01  0.000000e+00
     vertex  6.505452e-02 -4.149312e-01  1.969028e-01
     vertex  3.760351e-02 -4.183133e-01  0.000000e+00
   endloop
 endfacet
 facet normal  1.738403e-01 -9.847739e-01 -6.430483e-05
   outer loop
     vertex  8.089914e-02 -4.121351e-01  2.106351e-01
     vertex  6.505452e-02 -4.149312e-01  1.969028e-01
     vertex  8.156662e-02 -4.120035e-01  0.000000e+00
   endloop
 endfacet
 facet normal  1.150095e-01 -9.933644e-01  1.930616e-04
   outer loop
     vertex  3.351016e-02 -4.186610e-01  1.200000e+00
     vertex  3.887244e-02 -4.181972e-01  3.920693e-01
     vertex  5.763398e-02 -4.160268e-01  3.829429e-01
   endloop
 endfacet
 facet normal  6.875583e-02 -9.976335e-01 -1.163776e-04
   outer loop
     vertex  3.351016e-02 -4.186610e-01  1.200000e+00
     vertex  1.889163e-02 -4.195749e-01  3.974981e-01
     vertex  3.887244e-02 -4.181972e-01  3.920693e-01
   endloop
 endfacet
 facet normal  2.662052e-02 -9.996454e-01  6.534590e-04
   outer loop
     vertex  3.351016e-02 -4.186610e-01  1.200000e+00
     vertex -1.118062e-02 -4.198512e-01  1.200000e+00
     vertex  1.889163e-02 -4.195749e-01  3.974981e-01
   endloop
 endfacet
 facet normal  2.080337e-01 -9.781216e-01  4.820653e-05
   outer loop
     vertex  9.387685e-02 -4.093741e-01  2.271135e-01
     vertex  8.089914e-02 -4.121351e-01  2.106351e-01
     vertex  8.156662e-02 -4.120035e-01  0.000000e+00
   endloop
 endfacet
 facet normal  2.379820e-01 -9.712682e-01 -1.654426e-03
   outer loop
     vertex  1.034774e-01 -4.070533e-01  2.456693e-01
     vertex  9.387685e-02 -4.093741e-01  2.271135e-01
     vertex  8.156662e-02 -4.120035e-01  0.000000e+00
   endloop
 endfacet
 facet normal  2.575357e-01 -9.662679e-01 -1.307159e-03
   outer loop
     vertex  1.246176e-01 -4.010866e-01  0.000000e+00
     vertex  1.093922e-01 -4.055038e-01  2.655698e-01
     vertex  1.034774e-01 -4.070533e-01  2.456693e-01
   endloop
 endfacet
 facet normal  2.458006e-01 -9.693175e-01 -2.391051e-03
   outer loop
     vertex  1.246176e-01 -4.010866e-01  0.000000e+00
     vertex  1.034774e-01 -4.070533e-01  2.456693e-01
     vertex  8.156662e-02 -4.120035e-01  0.000000e+00
   endloop
 endfacet
 facet normal  2.686121e-01 -9.632482e-01 -6.219069e-04
   outer loop
     vertex  1.114954e-01 -4.049306e-01  2.861127e-01
     vertex  1.093922e-01 -4.055038e-01  2.655698e-01
     vertex  1.246176e-01 -4.010866e-01  0.000000e+00
   endloop
 endfacet
 facet normal  2.318187e-01 -9.727589e-01  5.073073e-04
   outer loop
     vertex  7.782126e-02 -4.127273e-01  1.200000e+00
     vertex  9.139152e-02 -4.099361e-01  3.511670e-01
     vertex  1.025881e-01 -4.072784e-01  3.308858e-01
   endloop
 endfacet
 facet normal  1.994807e-01 -9.799018e-01 -3.316706e-05
   outer loop
     vertex  7.782126e-02 -4.127273e-01  1.200000e+00
     vertex  7.617440e-02 -4.130345e-01  3.688182e-01
     vertex  9.139152e-02 -4.099361e-01  3.511670e-01
   endloop
 endfacet
 facet normal  1.593722e-01 -9.872186e-01  4.900583e-05
   outer loop
     vertex  7.782126e-02 -4.127273e-01  1.200000e+00
     vertex  5.763398e-02 -4.160268e-01  3.829429e-01
     vertex  7.617440e-02 -4.130345e-01  3.688182e-01
   endloop
 endfacet
 facet normal  1.327255e-01 -9.911526e-01  7.232605e-04
   outer loop
     vertex  7.782126e-02 -4.127273e-01  1.200000e+00
     vertex  3.351016e-02 -4.186610e-01  1.200000e+00
     vertex  5.763398e-02 -4.160268e-01  3.829429e-01
   endloop
 endfacet
 facet normal  2.643721e-01 -9.644207e-01  1.468689e-04
   outer loop
     vertex  1.212506e-01 -4.021173e-01  1.200000e+00
     vertex  1.093551e-01 -4.055138e-01  3.089128e-01
     vertex  1.114954e-01 -4.049306e-01  2.861127e-01
   endloop
 endfacet
 facet normal  2.532558e-01 -9.673993e-01  3.066179e-04
   outer loop
     vertex  1.212506e-01 -4.021173e-01  1.200000e+00
     vertex  1.025881e-01 -4.072784e-01  3.308858e-01
     vertex  1.093551e-01 -4.055138e-01  3.089128e-01
   endloop
 endfacet
 facet normal  2.373266e-01 -9.714297e-01  6.725993e-04
   outer loop
     vertex  1.212506e-01 -4.021173e-01  1.200000e+00
     vertex  7.782126e-02 -4.127273e-01  1.200000e+00
     vertex  1.025881e-01 -4.072784e-01  3.308858e-01
   endloop
 endfacet
 facet normal  3.392388e-01 -9.407000e-01 -7.253145e-04
   outer loop
     vertex  1.633062e-01 -3.869510e-01  1.200000e+00
     vertex  1.212506e-01 -4.021173e-01  1.200000e+00
     vertex  1.114954e-01 -4.049306e-01  2.861127e-01
   endloop
 endfacet
 facet normal  3.467859e-01 -9.379443e-01 -1.318975e-04
   outer loop
     vertex  1.633062e-01 -3.869510e-01  1.200000e+00
     vertex  1.246176e-01 -4.010866e-01  0.000000e+00
     vertex  1.662751e-01 -3.856846e-01  0.000000e+00
   endloop
 endfacet
 facet normal  3.072227e-01 -9.516368e-01  1.304931e-03
   outer loop
     vertex  1.633062e-01 -3.869510e-01  1.200000e+00
     vertex  1.114954e-01 -4.049306e-01  2.861127e-01
     vertex  1.246176e-01 -4.010866e-01  0.000000e+00
   endloop
 endfacet
 facet normal  4.373073e-01 -8.993121e-01  1.328360e-04
   outer loop
     vertex  2.035114e-01 -3.674005e-01  1.200000e+00
     vertex  1.633062e-01 -3.869510e-01  1.200000e+00
     vertex  1.662751e-01 -3.856846e-01  0.000000e+00
   endloop
 endfacet
 facet normal  4.438928e-01 -8.960799e-01 -1.207601e-04
   outer loop
     vertex  2.035114e-01 -3.674005e-01  1.200000e+00
     vertex  1.662751e-01 -3.856846e-01  0.000000e+00
     vertex  2.060733e-01 -3.659697e-01  0.000000e+00
   endloop
 endfacet
 facet normal  5.304209e-01 -8.477344e-01  1.216132e-04
   outer loop
     vertex  2.414107e-01 -3.436872e-01  1.200000e+00
     vertex  2.035114e-01 -3.674005e-01  1.200000e+00
     vertex  2.060733e-01 -3.659697e-01  0.000000e+00
   endloop
 endfacet
 facet normal  5.360358e-01 -8.441952e-01 -1.094520e-04
   outer loop
     vertex  2.414107e-01 -3.436872e-01  1.200000e+00
     vertex  2.060733e-01 -3.659697e-01  0.000000e+00
     vertex  2.435670e-01 -3.421624e-01  0.000000e+00
   endloop
 endfacet
 facet normal  6.175246e-01 -7.865516e-01  1.102198e-04
   outer loop
     vertex  2.765748e-01 -3.160797e-01  1.200000e+00
     vertex  2.414107e-01 -3.436872e-01  1.200000e+00
     vertex  2.435670e-01 -3.421624e-01  0.000000e+00
   endloop
 endfacet
 facet normal  6.221847e-01 -7.828705e-01 -9.797319e-05
   outer loop
     vertex  2.765748e-01 -3.160797e-01  1.200000e+00
     vertex  2.435670e-01 -3.421624e-01  0.000000e+00
     vertex  2.783371e-01 -3.145289e-01  0.000000e+00
   endloop
 endfacet
 facet normal  6.976315e-01 -7.164567e-01  9.865570e-05
   outer loop
     vertex  3.086051e-01 -2.848910e-01  1.200000e+00
     vertex  2.765748e-01 -3.160797e-01  1.200000e+00
     vertex  2.783371e-01 -3.145289e-01  0.000000e+00
   endloop
 endfacet
 facet normal  7.013761e-01 -7.127914e-01 -8.632376e-05
   outer loop
     vertex  3.086051e-01 -2.848910e-01  1.200000e+00
     vertex  2.783371e-01 -3.145289e-01  0.000000e+00
     vertex  3.099947e-01 -2.833783e-01  0.000000e+00
   endloop
 endfacet
 facet normal  7.698340e-01 -6.382442e-01  8.692095e-05
   outer loop
     vertex  3.371389e-01 -2.504743e-01  1.200000e+00
     vertex  3.086051e-01 -2.848910e-01  1.200000e+00
     vertex  3.099947e-01 -2.833783e-01  0.000000e+00
   endloop
 endfacet
 facet normal  7.727245e-01 -6.347416e-01 -7.450369e-05
   outer loop
     vertex  3.371389e-01 -2.504743e-01  1.200000e+00
     vertex  3.099947e-01 -2.833783e-01  0.000000e+00
     vertex  3.381859e-01 -2.490588e-01  0.000000e+00
   endloop
 endfacet
 facet normal  8.333139e-01 -5.528001e-01  7.501555e-05
   outer loop
     vertex  3.618527e-01 -2.132196e-01  1.200000e+00
     vertex  3.371389e-01 -2.504743e-01  1.200000e+00
     vertex  3.381859e-01 -2.490588e-01  0.000000e+00
   endloop
 endfacet
 facet normal  8.354320e-01 -5.495939e-01 -6.251297e-05
   outer loop
     vertex  3.618527e-01 -2.132196e-01  1.200000e+00
     vertex  3.381859e-01 -2.490588e-01  0.000000e+00
     vertex  3.625953e-01 -2.119543e-01  0.000000e+00
   endloop
 endfacet
 facet normal  8.873521e-01 -4.610925e-01  6.293952e-05
   outer loop
     vertex  3.824666e-01 -1.735491e-01  1.200000e+00
     vertex  3.618527e-01 -2.132196e-01  1.200000e+00
     vertex  3.625953e-01 -2.119543e-01  0.000000e+00
   endloop
 endfacet
 facet normal  8.887973e-01 -4.583004e-01 -5.035162e-05
   outer loop
     vertex  3.824666e-01 -1.735491e-01  1.200000e+00
     vertex  3.625953e-01 -2.119543e-01  0.000000e+00
     vertex  3.829501e-01 -1.724796e-01  0.000000e+00
   endloop
 endfacet
 facet normal  9.313362e-01 -3.641606e-01  5.069285e-05
   outer loop
     vertex  3.987470e-01 -1.319122e-01  1.200000e+00
     vertex  3.824666e-01 -1.735491e-01  1.200000e+00
     vertex  3.829501e-01 -1.724796e-01  0.000000e+00
   endloop
 endfacet
 facet normal  9.322239e-01 -3.618821e-01 -3.801965e-05
   outer loop
     vertex  3.987470e-01 -1.319122e-01  1.200000e+00
     vertex  3.829501e-01 -1.724796e-01  0.000000e+00
     vertex  3.990226e-01 -1.310762e-01  0.000000e+00
   endloop
 endfacet
 facet normal  9.647679e-01 -2.631026e-01  3.827556e-05
   outer loop
     vertex  4.105094e-01 -8.878070e-02  1.200000e+00
     vertex  3.987470e-01 -1.319122e-01  1.200000e+00
     vertex  3.990226e-01 -1.310762e-01  0.000000e+00
   endloop
 endfacet
 facet normal  9.652259e-01 -2.614171e-01 -2.551704e-05
   outer loop
     vertex  4.105094e-01 -8.878070e-02  1.200000e+00
     vertex  3.990226e-01 -1.310762e-01  0.000000e+00
     vertex  4.106331e-01 -8.820700e-02  0.000000e+00
   endloop
 endfacet
 facet normal  9.872684e-01 -1.590635e-01  2.568765e-05
   outer loop
     vertex  4.176206e-01 -4.464326e-02  1.200000e+00
     vertex  4.105094e-01 -8.878070e-02  1.200000e+00
     vertex  4.106331e-01 -8.820700e-02  0.000000e+00
   endloop
 endfacet
 facet normal  9.874345e-01 -1.580288e-01 -1.284383e-05
   outer loop
     vertex  4.176206e-01 -4.464326e-02  1.200000e+00
     vertex  4.106331e-01 -8.820700e-02  0.000000e+00
     vertex  4.176517e-01 -4.435148e-02  0.000000e+00
   endloop
 endfacet
 facet normal  9.986012e-01 -5.287334e-02  0.000000e+00
   outer loop
     vertex  4.200000e-01 -1.028703e-16  1.200000e+00
     vertex  4.176517e-01 -4.435148e-02  0.000000e+00
     vertex  4.200000e-01 -1.028703e-16  0.000000e+00
   endloop
 endfacet
 facet normal  9.985827e-01 -5.322217e-02  1.292913e-05
   outer loop
     vertex  4.200000e-01 -1.028703e-16  1.200000e+00
     vertex  4.176206e-01 -4.464326e-02  1.200000e+00
     vertex  4.176517e-01 -4.435148e-02  0.000000e+00
   endloop
 endfacet
 facet normal  1.380915e-01  9.904029e-01  5.723382e-03
   outer loop
     vertex  4.800633e-02  4.172474e-01  6.834131e-03
     vertex  7.032748e-02  4.140701e-01  1.809486e-02
     vertex  6.619210e-02  4.147513e-01  0.000000e+00
   endloop
 endfacet
 facet normal  2.657170e-01  9.640510e-01  4.539923e-04
   outer loop
     vertex  1.057836e-01  4.064601e-01  5.074352e-02
     vertex  1.179597e-01  4.030949e-01  7.024643e-02
     vertex  1.076310e-01  4.059748e-01  0.000000e+00
   endloop
 endfacet
 facet normal -2.525495e-01  9.675838e-01  6.037114e-04
   outer loop
     vertex -1.138317e-01  4.042800e-01  6.275850e-02
     vertex -9.892430e-02  4.081838e-01  4.235036e-02
     vertex -1.116048e-01  4.049004e-01  0.000000e+00
   endloop
 endfacet
 facet normal -1.646730e-01  9.863294e-01  6.084048e-03
   outer loop
     vertex -8.033929e-02  4.122446e-01  2.505888e-02
     vertex -6.111796e-02  4.155293e-01  1.280135e-02
     vertex -6.822382e-02  4.144219e-01  0.000000e+00
   endloop
 endfacet
 facet normal  0.000000e+00  0.000000e+00 -1.000000e+00
   outer loop
     vertex -2.986100e-03  3.018197e-01  0.000000e+00
     vertex -2.680384e-01  3.233503e-01  0.000000e+00
     vertex -2.323944e-01  3.498469e-01  0.000000e+00
   endloop
 endfacet
 facet normal -0.000000e+00  0.000000e+00 -1.000000e+00
   outer loop
     vertex -2.986100e-03  3.018197e-01  0.000000e+00
     vertex -3.006852e-01  2.932379e-01  0.000000e+00
     vertex -2.680384e-01  3.233503e-01  0.000000e+00
   endloop
 endfacet
 facet normal  0.000000e+00  0.000000e+00 -1.000000e+00
   outer loop
     vertex -1.907365e-03  3.007424e-01  0.000000e+00
     vertex -3.299695e-01  2.598463e-01  0.000000e+00
     vertex -3.006852e-01  2.932379e-01  0.000000e+00
   endloop
 endfacet
 facet normal  0.000000e+00  0.000000e+00 -1.000000e+00
   outer loop
     vertex -1.907365e-03  3.007424e-01  0.000000e+00
     vertex -3.555641e-01  2.235491e-01  0.000000e+00
     vertex -3.299695e-01  2.598463e-01  0.000000e+00
   endloop
 endfacet
 facet normal -0.000000e+00  0.000000e+00 -1.000000e+00
   outer loop
     vertex -1.907365e-03  3.007424e-01  0.000000e+00
     vertex -3.006852e-01  2.932379e-01  0.000000e+00
     vertex -2.986100e-03  3.018197e-01  0.000000e+00
   endloop
 endfacet
 facet normal  0.000000e+00  0.000000e+00 -1.000000e+00
   outer loop
     vertex -1.137484e-03  3.002640e-01  0.000000e+00
     vertex -3.771825e-01  1.847521e-01  0.000000e+00
     vertex -3.555641e-01  2.235491e-01  0.000000e+00
   endloop
 endfacet
 facet normal  0.000000e+00  0.000000e+00 -1.000000e+00
   outer loop
     vertex -1.137484e-03  3.002640e-01  0.000000e+00
     vertex -3.945832e-01  1.438891e-01  0.000000e+00
     vertex -3.771825e-01  1.847521e-01  0.000000e+00
   endloop
 endfacet
 facet normal  0.000000e+00  0.000000e+00 -1.000000e+00
   outer loop
     vertex -1.137484e-03  3.002640e-01  0.000000e+00
     vertex -4.075716e-01  1.014171e-01  0.000000e+00
     vertex -3.945832e-01  1.438891e-01  0.000000e+00
   endloop
 endfacet
 facet normal  0.000000e+00  0.000000e+00 -1.000000e+00
   outer loop
     vertex -1.137484e-03  3.002640e-01  0.000000e+00
     vertex -4.160023e-01  5.781099e-02  0.000000e+00
     vertex -4.075716e-01  1.014171e-01  0.000000e+00
   endloop
 endfacet
 facet normal  0.000000e+00  0.000000e+00 -1.000000e+00
   outer loop
     vertex -1.137484e-03  3.002640e-01  0.000000e+00
     vertex -4.197811e-01  1.355843e-02  0.000000e+00
     vertex -4.160023e-01  5.781099e-02  0.000000e+00
   endloop
 endfacet
 facet normal -0.000000e+00  0.000000e+00 -1.000000e+00
   outer loop
     vertex -1.137484e-03  3.002640e-01  0.000000e+00
     vertex -3.555641e-01  2.235491e-01  0.000000e+00
     vertex -1.907365e-03  3.007424e-01  0.000000e+00
   endloop
 endfacet
 facet normal  0.000000e+00  0.000000e+00 -1.000000e+00
   outer loop
     vertex -5.692632e-04  3.000661e-01  0.000000e+00
     vertex -4.188658e-01 -3.084574e-02  0.000000e+00
     vertex -4.197811e-01  1.355843e-02  0.000000e+00
   endloop
 endfacet
 facet normal  0.000000e+00  0.000000e+00 -1.000000e+00
   outer loop
     vertex -5.692632e-04  3.000661e-01  0.000000e+00
     vertex -4.132666e-01 -7.490498e-02  0.000000e+00
     vertex -4.188658e-01 -3.084574e-02  0.000000e+00
   endloop
 endfacet
 facet normal  0.000000e+00  0.000000e+00 -1.000000e+00
   outer loop
     vertex -5.692632e-04  3.000661e-01  0.000000e+00
     vertex -4.030460e-01 -1.181266e-01  0.000000e+00
     vertex -4.132666e-01 -7.490498e-02  0.000000e+00
   endloop
 endfacet
 facet normal  0.000000e+00  0.000000e+00 -1.000000e+00
   outer loop
     vertex -5.692632e-04  3.000661e-01  0.000000e+00
     vertex -3.883185e-01 -1.600273e-01  0.000000e+00
     vertex -4.030460e-01 -1.181266e-01  0.000000e+00
   endloop
 endfacet
 facet normal  0.000000e+00  0.000000e+00 -1.000000e+00
   outer loop
     vertex -5.692632e-04  3.000661e-01  0.000000e+00
     vertex -3.692487e-01 -2.001385e-01  0.000000e+00
     vertex -3.883185e-01 -1.600273e-01  0.000000e+00
   endloop
 endfacet
 facet normal  0.000000e+00  0.000000e+00 -1.000000e+00
   outer loop
     vertex -5.692632e-04  3.000661e-01  0.000000e+00
     vertex -3.460497e-01 -2.380117e-01  0.000000e+00
     vertex -3.692487e-01 -2.001385e-01  0.000000e+00
   endloop
 endfacet
 facet normal  0.000000e+00  0.000000e+00 -1.000000e+00
   outer loop
     vertex -5.692632e-04  3.000661e-01  0.000000e+00
     vertex -3.189812e-01 -2.732234e-01  0.000000e+00
     vertex -3.460497e-01 -2.380117e-01  0.000000e+00
   endloop
 endfacet
 facet normal  0.000000e+00  0.000000e+00 -1.000000e+00
   outer loop
     vertex -5.692632e-04  3.000661e-01  0.000000e+00
     vertex -2.883457e-01 -3.053797e-01  0.000000e+00
     vertex -3.189812e-01 -2.732234e-01  0.000000e+00
   endloop
 endfacet
 facet normal  0.000000e+00  0.000000e+00 -1.000000e+00
   outer loop
     vertex -5.692632e-04  3.000661e-01  0.000000e+00
     vertex -2.544857e-01 -3.341212e-01  0.000000e+00
     vertex -2.883457e-01 -3.053797e-01  0.000000e+00
   endloop
 endfacet
 facet normal -0.000000e+00  0.000000e+00 -1.000000e+00
   outer loop
     vertex -5.692632e-04  3.000661e-01  0.000000e+00
     vertex -4.197811e-01  1.355843e-02  0.000000e+00
     vertex -1.137484e-03  3.002640e-01  0.000000e+00
   endloop
 endfacet
 facet normal  0.000000e+00  0.000000e+00 -1.000000e+00
   outer loop
     vertex -6.144303e-18  3.000000e-01  0.000000e+00
     vertex -2.177801e-01 -3.591265e-01  0.000000e+00
     vertex -2.544857e-01 -3.341212e-01  0.000000e+00
   endloop
 endfacet
 facet normal  0.000000e+00  0.000000e+00 -1.000000e+00
   outer loop
     vertex -6.144303e-18  3.000000e-01  0.000000e+00
     vertex -1.786391e-01 -3.801159e-01  0.000000e+00
     vertex -2.177801e-01 -3.591265e-01  0.000000e+00
   endloop
 endfacet
 facet normal  0.000000e+00  0.000000e+00 -1.000000e+00
   outer loop
     vertex -6.144303e-18  3.000000e-01  0.000000e+00
     vertex -1.375005e-01 -3.968546e-01  0.000000e+00
     vertex -1.786391e-01 -3.801159e-01  0.000000e+00
   endloop
 endfacet
 facet normal  0.000000e+00  0.000000e+00 -1.000000e+00
   outer loop
     vertex -6.144303e-18  3.000000e-01  0.000000e+00
     vertex -9.482440e-02 -4.091556e-01  0.000000e+00
     vertex -1.375005e-01 -3.968546e-01  0.000000e+00
   endloop
 endfacet
 facet normal  0.000000e+00  0.000000e+00 -1.000000e+00
   outer loop
     vertex -6.144303e-18  3.000000e-01  0.000000e+00
     vertex -5.108789e-02 -4.168813e-01  0.000000e+00
     vertex -9.482440e-02 -4.091556e-01  0.000000e+00
   endloop
 endfacet
 facet normal  0.000000e+00  0.000000e+00 -1.000000e+00
   outer loop
     vertex -6.144303e-18  3.000000e-01  0.000000e+00
     vertex -6.780101e-03 -4.199453e-01  0.000000e+00
     vertex -5.108789e-02 -4.168813e-01  0.000000e+00
   endloop
 endfacet
 facet normal  0.000000e+00 -0.000000e+00 -1.000000e+00
   outer loop
     vertex -6.144303e-18  3.000000e-01  0.000000e+00
     vertex  3.760351e-02 -4.183133e-01  0.000000e+00
     vertex -6.780101e-03 -4.199453e-01  0.000000e+00
   endloop
 endfacet
 facet normal  0.000000e+00  0.000000e+00 -1.000000e+00
   outer loop
     vertex -6.144303e-18  3.000000e-01  0.000000e+00
     vertex  8.156662e-02 -4.120035e-01  0.000000e+00
     vertex  3.760351e-02 -4.183133e-01  0.000000e+00
   endloop
 endfacet
 facet normal  0.000000e+00  0.000000e+00 -1.000000e+00
   outer loop
     vertex -6.144303e-18  3.000000e-01  0.000000e+00
     vertex  1.246176e-01 -4.010866e-01  0.000000e+00
     vertex  8.156662e-02 -4.120035e-01  0.000000e+00
   endloop
 endfacet
 facet normal  0.000000e+00  0.000000e+00 -1.000000e+00
   outer loop
     vertex -6.144303e-18  3.000000e-01  0.000000e+00
     vertex  1.662751e-01 -3.856846e-01  0.000000e+00
     vertex  1.246176e-01 -4.010866e-01  0.000000e+00
   endloop
 endfacet
 facet normal  0.000000e+00  0.000000e+00 -1.000000e+00
   outer loop
     vertex -6.144303e-18  3.000000e-01  0.000000e+00
     vertex  2.060733e-01 -3.659697e-01  0.000000e+00
     vertex  1.662751e-01 -3.856846e-01  0.000000e+00
   endloop
 endfacet
 facet normal  0.000000e+00  0.000000e+00 -1.000000e+00
   outer loop
     vertex -6.144303e-18  3.000000e-01  0.000000e+00
     vertex  2.435670e-01 -3.421624e-01  0.000000e+00
     vertex  2.060733e-01 -3.659697e-01  0.000000e+00
   endloop
 endfacet
 facet normal -0.000000e+00  0.000000e+00 -1.000000e+00
   outer loop
     vertex -6.144303e-18  3.000000e-01  0.000000e+00
     vertex -2.544857e-01 -3.341212e-01  0.000000e+00
     vertex -5.692632e-04  3.000661e-01  0.000000e+00
   endloop
 endfacet
 facet normal  0.000000e+00  0.000000e+00 -1.000000e+00
   outer loop
     vertex -6.144303e-18  3.000000e-01  0.000000e+00
     vertex  2.783371e-01 -3.145289e-01  0.000000e+00
     vertex  2.435670e-01 -3.421624e-01  0.000000e+00
   endloop
 endfacet
 facet normal  0.000000e+00  0.000000e+00 -1.000000e+00
   outer loop
     vertex -4.946759e-03  3.049949e-01  0.000000e+00
     vertex -2.323944e-01  3.498469e-01  0.000000e+00
     vertex -1.941516e-01  3.724314e-01  0.000000e+00
   endloop
 endfacet
 facet normal -0.000000e+00 -0.000000e+00 -1.000000e+00
   outer loop
     vertex -4.946759e-03  3.049949e-01  0.000000e+00
     vertex -2.986100e-03  3.018197e-01  0.000000e+00
     vertex -2.323944e-01  3.498469e-01  0.000000e+00
   endloop
 endfacet
 facet normal  0.000000e+00  0.000000e+00 -1.000000e+00
   outer loop
     vertex  5.692632e-04  3.000661e-01  0.000000e+00
     vertex  3.099947e-01 -2.833783e-01  0.000000e+00
     vertex  2.783371e-01 -3.145289e-01  0.000000e+00
   endloop
 endfacet
 facet normal  0.000000e+00  0.000000e+00 -1.000000e+00
   outer loop
     vertex  5.692632e-04  3.000661e-01  0.000000e+00
     vertex  3.381859e-01 -2.490588e-01  0.000000e+00
     vertex  3.099947e-01 -2.833783e-01  0.000000e+00
   endloop
 endfacet
 facet normal  0.000000e+00  0.000000e+00 -1.000000e+00
   outer loop
     vertex  5.692632e-04  3.000661e-01  0.000000e+00
     vertex  3.625953e-01 -2.119543e-01  0.000000e+00
     vertex  3.381859e-01 -2.490588e-01  0.000000e+00
   endloop
 endfacet
 facet normal  0.000000e+00  0.000000e+00 -1.000000e+00
   outer loop
     vertex  5.692632e-04  3.000661e-01  0.000000e+00
     vertex  3.829501e-01 -1.724796e-01  0.000000e+00
     vertex  3.625953e-01 -2.119543e-01  0.000000e+00
   endloop
 endfacet
 facet normal  0.000000e+00  0.000000e+00 -1.000000e+00
   outer loop
     vertex  5.692632e-04  3.000661e-01  0.000000e+00
     vertex  3.990226e-01 -1.310762e-01  0.000000e+00
     vertex  3.829501e-01 -1.724796e-01  0.000000e+00
   endloop
 endfacet
 facet normal  0.000000e+00 -0.000000e+00 -1.000000e+00
   outer loop
     vertex  5.692632e-04  3.000661e-01  0.000000e+00
     vertex  2.783371e-01 -3.145289e-01  0.000000e+00
     vertex -6.144303e-18  3.000000e-01  0.000000e+00
   endloop
 endfacet
 facet normal  0.000000e+00  0.000000e+00 -1.000000e+00
   outer loop
     vertex -8.399450e-03  3.144102e-01  0.000000e+00
     vertex -1.537378e-01  3.908512e-01  0.000000e+00
     vertex -1.116048e-01  4.049004e-01  0.000000e+00
   endloop
 endfacet
 facet normal  0.000000e+00  0.000000e+00 -1.000000e+00
   outer loop
     vertex -8.399450e-03  3.144102e-01  0.000000e+00
     vertex -1.941516e-01  3.724314e-01  0.000000e+00
     vertex -1.537378e-01  3.908512e-01  0.000000e+00
   endloop
 endfacet
 facet normal -0.000000e+00 -0.000000e+00 -1.000000e+00
   outer loop
     vertex -8.399450e-03  3.144102e-01  0.000000e+00
     vertex -4.946759e-03  3.049949e-01  0.000000e+00
     vertex -1.941516e-01  3.724314e-01  0.000000e+00
   endloop
 endfacet
 facet normal -0.000000e+00  0.000000e+00 -1.000000e+00
   outer loop
     vertex  4.106331e-01 -8.820700e-02  0.000000e+00
     vertex  3.990226e-01 -1.310762e-01  0.000000e+00
     vertex  5.692632e-04  3.000661e-01  0.000000e+00
   endloop
 endfacet
 facet normal -0.000000e+00 -0.000000e+00 -1.000000e+00
   outer loop
     vertex -1.585451e-02  3.514755e-01  0.000000e+00
     vertex -8.399450e-03  3.144102e-01  0.000000e+00
     vertex -1.116048e-01  4.049004e-01  0.000000e+00
   endloop
 endfacet
 facet normal  0.000000e+00 -0.000000e+00 -1.000000e+00
   outer loop
     vertex -6.822382e-02  4.144219e-01  0.000000e+00
     vertex -1.585451e-02  3.514755e-01  0.000000e+00
     vertex -1.116048e-01  4.049004e-01  0.000000e+00
   endloop
 endfacet
 facet normal -0.000000e+00  0.000000e+00 -1.000000e+00
   outer loop
     vertex  4.176517e-01 -4.435148e-02  0.000000e+00
     vertex  4.106331e-01 -8.820700e-02  0.000000e+00
     vertex  5.692632e-04  3.000661e-01  0.000000e+00
   endloop
 endfacet
 facet normal  0.000000e+00 -0.000000e+00 -1.000000e+00
   outer loop
     vertex -2.407993e-02  4.193091e-01  0.000000e+00
     vertex -1.585451e-02  3.514755e-01  0.000000e+00
     vertex -6.822382e-02  4.144219e-01  0.000000e+00
   endloop
 endfacet
 facet normal  0.000000e+00  0.000000e+00 -1.000000e+00
   outer loop
     vertex  4.200000e-01 -1.028703e-16  0.000000e+00
     vertex  5.692632e-04  3.000661e-01  0.000000e+00
     vertex  1.137484e-03  3.002640e-01  0.000000e+00
   endloop
 endfacet
 facet normal -0.000000e+00  0.000000e+00 -1.000000e+00
   outer loop
     vertex  4.200000e-01 -1.028703e-16  0.000000e+00
     vertex  4.176517e-01 -4.435148e-02  0.000000e+00
     vertex  5.692632e-04  3.000661e-01  0.000000e+00
   endloop
 endfacet
 facet normal -0.000000e+00 -0.000000e+00 -1.000000e+00
   outer loop
     vertex  4.178640e-01  4.230423e-02  0.000000e+00
     vertex  4.200000e-01 -1.028703e-16  0.000000e+00
     vertex  1.137484e-03  3.002640e-01  0.000000e+00
   endloop
 endfacet
 facet normal -0.000000e+00  0.000000e+00 -1.000000e+00
   outer loop
     vertex  6.619210e-02  4.147513e-01  0.000000e+00
     vertex  1.585451e-02  3.514755e-01  0.000000e+00
     vertex  2.407993e-02  4.193091e-01  0.000000e+00
   endloop
 endfacet
 facet normal -0.000000e+00 -0.000000e+00 -1.000000e+00
   outer loop
     vertex  4.114779e-01  8.417817e-02  0.000000e+00
     vertex  4.178640e-01  4.230423e-02  0.000000e+00
     vertex  1.137484e-03  3.002640e-01  0.000000e+00
   endloop
 endfacet
 facet normal -0.000000e+00  0.000000e+00 -1.000000e+00
   outer loop
     vertex  1.076310e-01  4.059748e-01  0.000000e+00
     vertex  1.585451e-02  3.514755e-01  0.000000e+00
     vertex  6.619210e-02  4.147513e-01  0.000000e+00
   endloop
 endfacet
 facet normal  0.000000e+00  0.000000e+00 -1.000000e+00
   outer loop
     vertex  1.076310e-01  4.059748e-01  0.000000e+00
     vertex  8.399450e-03  3.144102e-01  0.000000e+00
     vertex  1.585451e-02  3.514755e-01  0.000000e+00
   endloop
 endfacet
 facet normal -0.000000e+00 -0.000000e+00 -1.000000e+00
   outer loop
     vertex  4.009065e-01  1.251959e-01  0.000000e+00
     vertex  4.114779e-01  8.417817e-02  0.000000e+00
     vertex  1.137484e-03  3.002640e-01  0.000000e+00
   endloop
 endfacet
 facet normal -0.000000e+00  0.000000e+00 -1.000000e+00
   outer loop
     vertex  1.479752e-01  3.930691e-01  0.000000e+00
     vertex  8.399450e-03  3.144102e-01  0.000000e+00
     vertex  1.076310e-01  4.059748e-01  0.000000e+00
   endloop
 endfacet
 facet normal -0.000000e+00 -0.000000e+00 -1.000000e+00
   outer loop
     vertex  3.862573e-01  1.649403e-01  0.000000e+00
     vertex  4.009065e-01  1.251959e-01  0.000000e+00
     vertex  1.137484e-03  3.002640e-01  0.000000e+00
   endloop
 endfacet
 facet normal  0.000000e+00  0.000000e+00 -1.000000e+00
   outer loop
     vertex  1.868143e-01  3.761654e-01  0.000000e+00
     vertex  4.946759e-03  3.049949e-01  0.000000e+00
     vertex  8.399450e-03  3.144102e-01  0.000000e+00
   endloop
 endfacet
 facet normal -0.000000e+00  0.000000e+00 -1.000000e+00
   outer loop
     vertex  1.868143e-01  3.761654e-01  0.000000e+00
     vertex  8.399450e-03  3.144102e-01  0.000000e+00
     vertex  1.479752e-01  3.930691e-01  0.000000e+00
   endloop
 endfacet
 facet normal -0.000000e+00 -0.000000e+00 -1.000000e+00
   outer loop
     vertex  3.676795e-01  2.030069e-01  0.000000e+00
     vertex  3.862573e-01  1.649403e-01  0.000000e+00
     vertex  1.137484e-03  3.002640e-01  0.000000e+00
   endloop
 endfacet
 facet normal  0.000000e+00  0.000000e+00 -1.000000e+00
   outer loop
     vertex  3.676795e-01  2.030069e-01  0.000000e+00
     vertex  1.137484e-03  3.002640e-01  0.000000e+00
     vertex  1.907365e-03  3.007424e-01  0.000000e+00
   endloop
 endfacet
 facet normal -0.000000e+00  0.000000e+00 -1.000000e+00
   outer loop
     vertex  2.237532e-01  3.554356e-01  0.000000e+00
     vertex  4.946759e-03  3.049949e-01  0.000000e+00
     vertex  1.868143e-01  3.761654e-01  0.000000e+00
   endloop
 endfacet
 facet normal  0.000000e+00  0.000000e+00 -1.000000e+00
   outer loop
     vertex  2.237532e-01  3.554356e-01  0.000000e+00
     vertex  2.986100e-03  3.018197e-01  0.000000e+00
     vertex  4.946759e-03  3.049949e-01  0.000000e+00
   endloop
 endfacet
 facet normal -0.000000e+00 -0.000000e+00 -1.000000e+00
   outer loop
     vertex  3.453618e-01  2.390088e-01  0.000000e+00
     vertex  3.676795e-01  2.030069e-01  0.000000e+00
     vertex  1.907365e-03  3.007424e-01  0.000000e+00
   endloop
 endfacet
 facet normal -0.000000e+00  0.000000e+00 -1.000000e+00
   outer loop
     vertex  2.584163e-01  3.310906e-01  0.000000e+00
     vertex  2.986100e-03  3.018197e-01  0.000000e+00
     vertex  2.237532e-01  3.554356e-01  0.000000e+00
   endloop
 endfacet
 facet normal -0.000000e+00 -0.000000e+00 -1.000000e+00
   outer loop
     vertex  3.195314e-01  2.725796e-01  0.000000e+00
     vertex  3.453618e-01  2.390088e-01  0.000000e+00
     vertex  1.907365e-03  3.007424e-01  0.000000e+00
   endloop
 endfacet
 facet normal -0.000000e+00  0.000000e+00 -1.000000e+00
   outer loop
     vertex  2.904510e-01  3.033780e-01  0.000000e+00
     vertex  2.986100e-03  3.018197e-01  0.000000e+00
     vertex  2.584163e-01  3.310906e-01  0.000000e+00
   endloop
 endfacet
 facet normal  0.000000e+00 -0.000000e+00 -1.000000e+00
   outer loop
     vertex  2.904510e-01  3.033780e-01  0.000000e+00
     vertex  3.195314e-01  2.725796e-01  0.000000e+00
     vertex  1.907365e-03  3.007424e-01  0.000000e+00
   endloop
 endfacet
 facet normal  0.000000e+00  0.000000e+00 -1.000000e+00
   outer loop
     vertex  2.904510e-01  3.033780e-01  0.000000e+00
     vertex  1.907365e-03  3.007424e-01  0.000000e+00
     vertex  2.986100e-03  3.018197e-01  0.000000e+00
   endloop
 endfacet
endsolid
