solid 
 facet normal  0.000000e+00 -1.000000e+00  0.000000e+00
   outer loop
     vertex -8.051479e-02 -1.700000e+00  4.068278e-01
     vertex -1.114842e-01 -1.700000e+00  3.315710e-01
     vertex -1.111734e-01 -1.700000e+00  3.211664e-01
   endloop
 endfacet
 facet normal  0.000000e+00 -1.000000e+00  0.000000e+00
   outer loop
     vertex -8.051479e-02 -1.700000e+00  4.068278e-01
     vertex -1.108234e-01 -1.700000e+00  3.419592e-01
     vertex -1.114842e-01 -1.700000e+00  3.315710e-01
   endloop
 endfacet
 facet normal  0.000000e+00 -1.000000e+00  0.000000e+00
   outer loop
     vertex -8.051479e-02 -1.700000e+00  4.068278e-01
     vertex -1.091966e-01 -1.700000e+00  3.522405e-01
     vertex -1.108234e-01 -1.700000e+00  3.419592e-01
   endloop
 endfacet
 facet normal  0.000000e+00 -1.000000e+00  0.000000e+00
   outer loop
     vertex -8.051479e-02 -1.700000e+00  4.068278e-01
     vertex -1.066182e-01 -1.700000e+00  3.623253e-01
     vertex -1.091966e-01 -1.700000e+00  3.522405e-01
   endloop
 endfacet
 facet normal  0.000000e+00 -1.000000e+00  0.000000e+00
   outer loop
     vertex -8.051479e-02 -1.700000e+00  4.068278e-01
     vertex -1.031106e-01 -1.700000e+00  3.721257e-01
     vertex -1.066182e-01 -1.700000e+00  3.623253e-01
   endloop
 endfacet
 facet normal  0.000000e+00 -1.000000e+00  0.000000e+00
   outer loop
     vertex -8.051479e-02 -1.700000e+00  4.068278e-01
     vertex -9.870436e-02 -1.700000e+00  3.815563e-01
     vertex -1.031106e-01 -1.700000e+00  3.721257e-01
   endloop
 endfacet
 facet normal  0.000000e+00 -1.000000e+00  0.000000e+00
   outer loop
     vertex -8.051479e-02 -1.700000e+00  4.068278e-01
     vertex -9.343785e-02 -1.700000e+00  3.905349e-01
     vertex -9.870436e-02 -1.700000e+00  3.815563e-01
   endloop
 endfacet
 facet normal  0.000000e+00 -1.000000e+00  0.000000e+00
   outer loop
     vertex -8.051479e-02 -1.700000e+00  4.068278e-01
     vertex -8.735699e-02 -1.700000e+00  3.989833e-01
     vertex -9.343785e-02 -1.700000e+00  3.905349e-01
   endloop
 endfacet
 facet normal  0.000000e+00 -1.000000e+00  0.000000e+00
   outer loop
     vertex  8.051479e-02 -1.700000e+00  4.068278e-01
     vertex  9.343785e-02 -1.700000e+00  3.905349e-01
     vertex  8.735699e-02 -1.700000e+00  3.989833e-01
   endloop
 endfacet
 facet normal  0.000000e+00 -1.000000e+00  0.000000e+00
   outer loop
     vertex  8.051479e-02 -1.700000e+00  4.068278e-01
     vertex  9.870436e-02 -1.700000e+00  3.815563e-01
     vertex  9.343785e-02 -1.700000e+00  3.905349e-01
   endloop
 endfacet
 facet normal  0.000000e+00 -1.000000e+00  0.000000e+00
   outer loop
     vertex  8.051479e-02 -1.700000e+00  4.068278e-01
     vertex  1.031106e-01 -1.700000e+00  3.721257e-01
     vertex  9.870436e-02 -1.700000e+00  3.815563e-01
   endloop
 endfacet
 facet normal  0.000000e+00 -1.000000e+00  0.000000e+00
   outer loop
     vertex  8.051479e-02 -1.700000e+00  4.068278e-01
     vertex  1.066182e-01 -1.700000e+00  3.623253e-01
     vertex  1.031106e-01 -1.700000e+00  3.721257e-01
   endloop
 endfacet
 facet normal  0.000000e+00 -1.000000e+00  0.000000e+00
   outer loop
     vertex  8.051479e-02 -1.700000e+00  4.068278e-01
     vertex  1.091966e-01 -1.700000e+00  3.522405e-01
     vertex  1.066182e-01 -1.700000e+00  3.623253e-01
   endloop
 endfacet
 facet normal  0.000000e+00 -1.000000e+00  0.000000e+00
   outer loop
     vertex  8.051479e-02 -1.700000e+00  4.068278e-01
     vertex  1.108234e-01 -1.700000e+00  3.419592e-01
     vertex  1.091966e-01 -1.700000e+00  3.522405e-01
   endloop
 endfacet
 facet normal  0.000000e+00 -1.000000e+00  0.000000e+00
   outer loop
     vertex  8.051479e-02 -1.700000e+00  4.068278e-01
     vertex  1.114842e-01 -1.700000e+00  3.315710e-01
     vertex  1.108234e-01 -1.700000e+00  3.419592e-01
   endloop
 endfacet
 facet normal  0.000000e+00 -1.000000e+00  0.000000e+00
   outer loop
     vertex  8.051479e-02 -1.700000e+00  4.068278e-01
     vertex  1.111734e-01 -1.700000e+00  3.211664e-01
     vertex  1.114842e-01 -1.700000e+00  3.315710e-01
   endloop
 endfacet
 facet normal  0.000000e+00 -1.000000e+00  0.000000e+00
   outer loop
     vertex  8.051479e-02 -1.700000e+00  4.068278e-01
     vertex  1.098937e-01 -1.700000e+00  3.108361e-01
     vertex  1.111734e-01 -1.700000e+00  3.211664e-01
   endloop
 endfacet
 facet normal  0.000000e+00 -1.000000e+00  0.000000e+00
   outer loop
     vertex  8.051479e-02 -1.700000e+00  4.068278e-01
     vertex  1.076563e-01 -1.700000e+00  3.006703e-01
     vertex  1.098937e-01 -1.700000e+00  3.108361e-01
   endloop
 endfacet
 facet normal  0.000000e+00 -1.000000e+00  0.000000e+00
   outer loop
     vertex  8.051479e-02 -1.700000e+00  4.068278e-01
     vertex  1.044805e-01 -1.700000e+00  2.907573e-01
     vertex  1.076563e-01 -1.700000e+00  3.006703e-01
   endloop
 endfacet
 facet normal  0.000000e+00 -1.000000e+00  0.000000e+00
   outer loop
     vertex  8.051479e-02 -1.700000e+00  4.068278e-01
     vertex  1.003942e-01 -1.700000e+00  2.811837e-01
     vertex  1.044805e-01 -1.700000e+00  2.907573e-01
   endloop
 endfacet
 facet normal  0.000000e+00 -1.000000e+00  0.000000e+00
   outer loop
     vertex  8.051479e-02 -1.700000e+00  4.068278e-01
     vertex  9.543296e-02 -1.700000e+00  2.720329e-01
     vertex  1.003942e-01 -1.700000e+00  2.811837e-01
   endloop
 endfacet
 facet normal  0.000000e+00 -1.000000e+00  0.000000e+00
   outer loop
     vertex  8.051479e-02 -1.700000e+00  4.068278e-01
     vertex  8.963994e-02 -1.700000e+00  2.633846e-01
     vertex  9.543296e-02 -1.700000e+00  2.720329e-01
   endloop
 endfacet
 facet normal  0.000000e+00 -1.000000e+00  0.000000e+00
   outer loop
     vertex  8.051479e-02 -1.700000e+00  4.068278e-01
     vertex  8.306568e-02 -1.700000e+00  2.553143e-01
     vertex  8.963994e-02 -1.700000e+00  2.633846e-01
   endloop
 endfacet
 facet normal  0.000000e+00 -1.000000e+00 -0.000000e+00
   outer loop
     vertex  8.051479e-02 -1.700000e+00  4.068278e-01
     vertex  7.576748e-02 -1.700000e+00  2.478922e-01
     vertex  8.306568e-02 -1.700000e+00  2.553143e-01
   endloop
 endfacet
 facet normal  0.000000e+00 -1.000000e+00  0.000000e+00
   outer loop
     vertex  8.051479e-02 -1.700000e+00  4.068278e-01
     vertex  6.780893e-02 -1.700000e+00  2.411830e-01
     vertex  7.576748e-02 -1.700000e+00  2.478922e-01
   endloop
 endfacet
 facet normal  0.000000e+00 -1.000000e+00  0.000000e+00
   outer loop
     vertex  8.051479e-02 -1.700000e+00  4.068278e-01
     vertex  5.925940e-02 -1.700000e+00  2.352452e-01
     vertex  6.780893e-02 -1.700000e+00  2.411830e-01
   endloop
 endfacet
 facet normal  0.000000e+00 -1.000000e+00  0.000000e+00
   outer loop
     vertex  8.051479e-02 -1.700000e+00  4.068278e-01
     vertex  5.019341e-02 -1.700000e+00  2.301306e-01
     vertex  5.925940e-02 -1.700000e+00  2.352452e-01
   endloop
 endfacet
 facet normal  0.000000e+00 -1.000000e+00  0.000000e+00
   outer loop
     vertex  8.051479e-02 -1.700000e+00  4.068278e-01
     vertex  4.068996e-02 -1.700000e+00  2.258837e-01
     vertex  5.019341e-02 -1.700000e+00  2.301306e-01
   endloop
 endfacet
 facet normal  0.000000e+00 -1.000000e+00  0.000000e+00
   outer loop
     vertex  8.051479e-02 -1.700000e+00  4.068278e-01
     vertex  3.083189e-02 -1.700000e+00  2.225416e-01
     vertex  4.068996e-02 -1.700000e+00  2.258837e-01
   endloop
 endfacet
 facet normal  0.000000e+00 -1.000000e+00  0.000000e+00
   outer loop
     vertex  8.051479e-02 -1.700000e+00  4.068278e-01
     vertex  2.070510e-02 -1.700000e+00  2.201333e-01
     vertex  3.083189e-02 -1.700000e+00  2.225416e-01
   endloop
 endfacet
 facet normal  0.000000e+00 -1.000000e+00  0.000000e+00
   outer loop
     vertex  8.051479e-02 -1.700000e+00  4.068278e-01
     vertex  1.039786e-02 -1.700000e+00  2.186799e-01
     vertex  2.070510e-02 -1.700000e+00  2.201333e-01
   endloop
 endfacet
 facet normal  0.000000e+00 -1.000000e+00  0.000000e+00
   outer loop
     vertex  8.051479e-02 -1.700000e+00  4.068278e-01
     vertex  1.646538e-17 -1.700000e+00  2.181940e-01
     vertex  1.039786e-02 -1.700000e+00  2.186799e-01
   endloop
 endfacet
 facet normal  0.000000e+00 -1.000000e+00  0.000000e+00
   outer loop
     vertex  8.051479e-02 -1.700000e+00  4.068278e-01
     vertex -1.039786e-02 -1.700000e+00  2.186799e-01
     vertex  1.646538e-17 -1.700000e+00  2.181940e-01
   endloop
 endfacet
 facet normal  0.000000e+00 -1.000000e+00  0.000000e+00
   outer loop
     vertex  8.051479e-02 -1.700000e+00  4.068278e-01
     vertex -2.070510e-02 -1.700000e+00  2.201333e-01
     vertex -1.039786e-02 -1.700000e+00  2.186799e-01
   endloop
 endfacet
 facet normal  0.000000e+00 -1.000000e+00  0.000000e+00
   outer loop
     vertex  8.051479e-02 -1.700000e+00  4.068278e-01
     vertex -3.083189e-02 -1.700000e+00  2.225416e-01
     vertex -2.070510e-02 -1.700000e+00  2.201333e-01
   endloop
 endfacet
 facet normal  0.000000e+00 -1.000000e+00  0.000000e+00
   outer loop
     vertex  8.051479e-02 -1.700000e+00  4.068278e-01
     vertex -4.068996e-02 -1.700000e+00  2.258837e-01
     vertex -3.083189e-02 -1.700000e+00  2.225416e-01
   endloop
 endfacet
 facet normal  0.000000e+00 -1.000000e+00  0.000000e+00
   outer loop
     vertex  8.051479e-02 -1.700000e+00  4.068278e-01
     vertex -5.019341e-02 -1.700000e+00  2.301306e-01
     vertex -4.068996e-02 -1.700000e+00  2.258837e-01
   endloop
 endfacet
 facet normal  0.000000e+00 -1.000000e+00  0.000000e+00
   outer loop
     vertex  8.051479e-02 -1.700000e+00  4.068278e-01
     vertex -5.925940e-02 -1.700000e+00  2.352452e-01
     vertex -5.019341e-02 -1.700000e+00  2.301306e-01
   endloop
 endfacet
 facet normal  0.000000e+00 -1.000000e+00  0.000000e+00
   outer loop
     vertex  8.051479e-02 -1.700000e+00  4.068278e-01
     vertex -6.780893e-02 -1.700000e+00  2.411830e-01
     vertex -5.925940e-02 -1.700000e+00  2.352452e-01
   endloop
 endfacet
 facet normal  0.000000e+00 -1.000000e+00  0.000000e+00
   outer loop
     vertex  8.051479e-02 -1.700000e+00  4.068278e-01
     vertex -7.576748e-02 -1.700000e+00  2.478922e-01
     vertex -6.780893e-02 -1.700000e+00  2.411830e-01
   endloop
 endfacet
 facet normal  0.000000e+00 -1.000000e+00  0.000000e+00
   outer loop
     vertex  8.051479e-02 -1.700000e+00  4.068278e-01
     vertex -8.306568e-02 -1.700000e+00  2.553143e-01
     vertex -7.576748e-02 -1.700000e+00  2.478922e-01
   endloop
 endfacet
 facet normal  0.000000e+00 -1.000000e+00  0.000000e+00
   outer loop
     vertex  8.051479e-02 -1.700000e+00  4.068278e-01
     vertex -8.963994e-02 -1.700000e+00  2.633846e-01
     vertex -8.306568e-02 -1.700000e+00  2.553143e-01
   endloop
 endfacet
 facet normal  0.000000e+00 -1.000000e+00  0.000000e+00
   outer loop
     vertex  8.051479e-02 -1.700000e+00  4.068278e-01
     vertex -9.543296e-02 -1.700000e+00  2.720329e-01
     vertex -8.963994e-02 -1.700000e+00  2.633846e-01
   endloop
 endfacet
 facet normal  0.000000e+00 -1.000000e+00  0.000000e+00
   outer loop
     vertex  8.051479e-02 -1.700000e+00  4.068278e-01
     vertex -1.003942e-01 -1.700000e+00  2.811837e-01
     vertex -9.543296e-02 -1.700000e+00  2.720329e-01
   endloop
 endfacet
 facet normal  0.000000e+00 -1.000000e+00  0.000000e+00
   outer loop
     vertex  8.051479e-02 -1.700000e+00  4.068278e-01
     vertex -1.044805e-01 -1.700000e+00  2.907573e-01
     vertex -1.003942e-01 -1.700000e+00  2.811837e-01
   endloop
 endfacet
 facet normal  0.000000e+00 -1.000000e+00  0.000000e+00
   outer loop
     vertex  8.051479e-02 -1.700000e+00  4.068278e-01
     vertex -1.076563e-01 -1.700000e+00  3.006703e-01
     vertex -1.044805e-01 -1.700000e+00  2.907573e-01
   endloop
 endfacet
 facet normal  0.000000e+00 -1.000000e+00  0.000000e+00
   outer loop
     vertex  8.051479e-02 -1.700000e+00  4.068278e-01
     vertex -1.098937e-01 -1.700000e+00  3.108361e-01
     vertex -1.076563e-01 -1.700000e+00  3.006703e-01
   endloop
 endfacet
 facet normal  0.000000e+00 -1.000000e+00  0.000000e+00
   outer loop
     vertex  8.051479e-02 -1.700000e+00  4.068278e-01
     vertex -1.111734e-01 -1.700000e+00  3.211664e-01
     vertex -1.098937e-01 -1.700000e+00  3.108361e-01
   endloop
 endfacet
 facet normal  0.000000e+00 -1.000000e+00  0.000000e+00
   outer loop
     vertex  8.051479e-02 -1.700000e+00  4.068278e-01
     vertex -7.297087e-02 -1.700000e+00  4.140000e-01
     vertex -8.051479e-02 -1.700000e+00  4.068278e-01
   endloop
 endfacet
 facet normal  0.000000e+00 -1.000000e+00  0.000000e+00
   outer loop
     vertex  8.051479e-02 -1.700000e+00  4.068278e-01
     vertex  7.297087e-02 -1.700000e+00  4.140000e-01
     vertex -7.297087e-02 -1.700000e+00  4.140000e-01
   endloop
 endfacet
 facet normal -0.000000e+00 -1.000000e+00  0.000000e+00
   outer loop
     vertex  8.051479e-02 -1.700000e+00  4.068278e-01
     vertex -8.051479e-02 -1.700000e+00  4.068278e-01
     vertex -1.111734e-01 -1.700000e+00  3.211664e-01
   endloop
 endfacet
endsolid
