solid 
 facet normal  0.000000e+00  1.000000e+00  0.000000e+00
   outer loop
     vertex  1.235526e-01  1.240000e+00  6.725148e-02
     vertex  1.186091e-01  1.240000e+00  5.605567e-02
     vertex  1.126538e-01  1.240000e+00  4.536374e-02
   endloop
 endfacet
 facet normal  0.000000e+00  1.000000e+00  0.000000e+00
   outer loop
     vertex -4.786452e-02  1.240000e+00  2.386686e-01
     vertex -6.975226e-02  1.240000e+00  2.277698e-01
     vertex -5.906033e-02  1.240000e+00  2.337251e-01
   endloop
 endfacet
 facet normal  0.000000e+00  1.000000e+00  0.000000e+00
   outer loop
     vertex  2.434681e-02  1.240000e+00  2.453599e-01
     vertex  1.681921e-16  1.240000e+00  2.476160e-01
     vertex  1.222556e-02  1.240000e+00  2.470508e-01
   endloop
 endfacet
 facet normal  0.000000e+00  1.000000e+00  0.000000e+00
   outer loop
     vertex  8.926467e-02  1.240000e+00  2.130347e-01
     vertex -1.849548e-17  1.240000e+00 -1.738400e-02
     vertex -1.222556e-02  1.240000e+00 -1.681878e-02
   endloop
 endfacet
 facet normal  0.000000e+00  1.000000e+00  0.000000e+00
   outer loop
     vertex  8.926467e-02  1.240000e+00  2.130347e-01
     vertex -1.222556e-02  1.240000e+00 -1.681878e-02
     vertex -2.434681e-02  1.240000e+00 -1.512794e-02
   endloop
 endfacet
 facet normal  0.000000e+00  1.000000e+00  0.000000e+00
   outer loop
     vertex  8.926467e-02  1.240000e+00  2.130347e-01
     vertex -2.434681e-02  1.240000e+00 -1.512794e-02
     vertex -3.626035e-02  1.240000e+00 -1.232590e-02
   endloop
 endfacet
 facet normal  0.000000e+00  1.000000e+00  0.000000e+00
   outer loop
     vertex  8.926467e-02  1.240000e+00  2.130347e-01
     vertex -3.626035e-02  1.240000e+00 -1.232590e-02
     vertex -4.786452e-02  1.240000e+00 -8.436570e-03
   endloop
 endfacet
 facet normal  0.000000e+00  1.000000e+00  0.000000e+00
   outer loop
     vertex  8.926467e-02  1.240000e+00  2.130347e-01
     vertex -4.786452e-02  1.240000e+00 -8.436570e-03
     vertex -5.906033e-02  1.240000e+00 -3.493136e-03
   endloop
 endfacet
 facet normal  0.000000e+00  1.000000e+00  0.000000e+00
   outer loop
     vertex  8.926467e-02  1.240000e+00  2.130347e-01
     vertex -5.906033e-02  1.240000e+00 -3.493136e-03
     vertex -6.975226e-02  1.240000e+00  2.462230e-03
   endloop
 endfacet
 facet normal  0.000000e+00  1.000000e+00  0.000000e+00
   outer loop
     vertex  8.926467e-02  1.240000e+00  2.130347e-01
     vertex -6.975226e-02  1.240000e+00  2.462230e-03
     vertex -7.984909e-02  1.240000e+00  9.378717e-03
   endloop
 endfacet
 facet normal  0.000000e+00  1.000000e+00  0.000000e+00
   outer loop
     vertex  8.926467e-02  1.240000e+00  2.130347e-01
     vertex -7.984909e-02  1.240000e+00  9.378717e-03
     vertex -8.926467e-02  1.240000e+00  1.719732e-02
   endloop
 endfacet
 facet normal  0.000000e+00  1.000000e+00  0.000000e+00
   outer loop
     vertex  8.926467e-02  1.240000e+00  2.130347e-01
     vertex -8.926467e-02  1.240000e+00  1.719732e-02
     vertex -9.791868e-02  1.240000e+00  2.585133e-02
   endloop
 endfacet
 facet normal  0.000000e+00  1.000000e+00  0.000000e+00
   outer loop
     vertex  8.926467e-02  1.240000e+00  2.130347e-01
     vertex -9.791868e-02  1.240000e+00  2.585133e-02
     vertex -1.057373e-01  1.240000e+00  3.526691e-02
   endloop
 endfacet
 facet normal  0.000000e+00  1.000000e+00  0.000000e+00
   outer loop
     vertex  8.926467e-02  1.240000e+00  2.130347e-01
     vertex -1.057373e-01  1.240000e+00  3.526691e-02
     vertex -1.126538e-01  1.240000e+00  4.536374e-02
   endloop
 endfacet
 facet normal  0.000000e+00  1.000000e+00  0.000000e+00
   outer loop
     vertex  8.926467e-02  1.240000e+00  2.130347e-01
     vertex -1.126538e-01  1.240000e+00  4.536374e-02
     vertex -1.186091e-01  1.240000e+00  5.605567e-02
   endloop
 endfacet
 facet normal  0.000000e+00  1.000000e+00  0.000000e+00
   outer loop
     vertex  8.926467e-02  1.240000e+00  2.130347e-01
     vertex -6.975226e-02  1.240000e+00  2.277698e-01
     vertex -4.786452e-02  1.240000e+00  2.386686e-01
   endloop
 endfacet
 facet normal  0.000000e+00  1.000000e+00  0.000000e+00
   outer loop
     vertex  8.926467e-02  1.240000e+00  2.130347e-01
     vertex -1.186091e-01  1.240000e+00  5.605567e-02
     vertex -1.235526e-01  1.240000e+00  6.725148e-02
   endloop
 endfacet
 facet normal  0.000000e+00  1.000000e+00  0.000000e+00
   outer loop
     vertex  8.926467e-02  1.240000e+00  2.130347e-01
     vertex -1.235526e-01  1.240000e+00  6.725148e-02
     vertex -1.274419e-01  1.240000e+00  7.885565e-02
   endloop
 endfacet
 facet normal  0.000000e+00  1.000000e+00  0.000000e+00
   outer loop
     vertex  8.926467e-02  1.240000e+00  2.130347e-01
     vertex -1.274419e-01  1.240000e+00  7.885565e-02
     vertex -1.302439e-01  1.240000e+00  9.076919e-02
   endloop
 endfacet
 facet normal  0.000000e+00  1.000000e+00  0.000000e+00
   outer loop
     vertex  8.926467e-02  1.240000e+00  2.130347e-01
     vertex -1.302439e-01  1.240000e+00  9.076919e-02
     vertex -1.319348e-01  1.240000e+00  1.028904e-01
   endloop
 endfacet
 facet normal  0.000000e+00  1.000000e+00  0.000000e+00
   outer loop
     vertex  8.926467e-02  1.240000e+00  2.130347e-01
     vertex -1.319348e-01  1.240000e+00  1.028904e-01
     vertex -1.325000e-01  1.240000e+00  1.151160e-01
   endloop
 endfacet
 facet normal  0.000000e+00  1.000000e+00  0.000000e+00
   outer loop
     vertex  8.926467e-02  1.240000e+00  2.130347e-01
     vertex -1.325000e-01  1.240000e+00  1.151160e-01
     vertex -1.319348e-01  1.240000e+00  1.273416e-01
   endloop
 endfacet
 facet normal  0.000000e+00  1.000000e+00  0.000000e+00
   outer loop
     vertex  8.926467e-02  1.240000e+00  2.130347e-01
     vertex -1.319348e-01  1.240000e+00  1.273416e-01
     vertex -1.302439e-01  1.240000e+00  1.394628e-01
   endloop
 endfacet
 facet normal  0.000000e+00  1.000000e+00  0.000000e+00
   outer loop
     vertex  8.926467e-02  1.240000e+00  2.130347e-01
     vertex -1.302439e-01  1.240000e+00  1.394628e-01
     vertex -1.274419e-01  1.240000e+00  1.513763e-01
   endloop
 endfacet
 facet normal  0.000000e+00  1.000000e+00  0.000000e+00
   outer loop
     vertex  8.926467e-02  1.240000e+00  2.130347e-01
     vertex -1.274419e-01  1.240000e+00  1.513763e-01
     vertex -1.235526e-01  1.240000e+00  1.629805e-01
   endloop
 endfacet
 facet normal  0.000000e+00  1.000000e+00  0.000000e+00
   outer loop
     vertex  8.926467e-02  1.240000e+00  2.130347e-01
     vertex -1.235526e-01  1.240000e+00  1.629805e-01
     vertex -1.186091e-01  1.240000e+00  1.741763e-01
   endloop
 endfacet
 facet normal  0.000000e+00  1.000000e+00  0.000000e+00
   outer loop
     vertex  8.926467e-02  1.240000e+00  2.130347e-01
     vertex -1.186091e-01  1.240000e+00  1.741763e-01
     vertex -1.126538e-01  1.240000e+00  1.848683e-01
   endloop
 endfacet
 facet normal  0.000000e+00  1.000000e+00  0.000000e+00
   outer loop
     vertex  8.926467e-02  1.240000e+00  2.130347e-01
     vertex -1.126538e-01  1.240000e+00  1.848683e-01
     vertex -1.057373e-01  1.240000e+00  1.949651e-01
   endloop
 endfacet
 facet normal  0.000000e+00  1.000000e+00  0.000000e+00
   outer loop
     vertex  8.926467e-02  1.240000e+00  2.130347e-01
     vertex -1.057373e-01  1.240000e+00  1.949651e-01
     vertex -9.791868e-02  1.240000e+00  2.043807e-01
   endloop
 endfacet
 facet normal  0.000000e+00  1.000000e+00  0.000000e+00
   outer loop
     vertex  8.926467e-02  1.240000e+00  2.130347e-01
     vertex -9.791868e-02  1.240000e+00  2.043807e-01
     vertex -8.926467e-02  1.240000e+00  2.130347e-01
   endloop
 endfacet
 facet normal  0.000000e+00  1.000000e+00  0.000000e+00
   outer loop
     vertex  8.926467e-02  1.240000e+00  2.130347e-01
     vertex -8.926467e-02  1.240000e+00  2.130347e-01
     vertex -7.984909e-02  1.240000e+00  2.208533e-01
   endloop
 endfacet
 facet normal  0.000000e+00  1.000000e+00  0.000000e+00
   outer loop
     vertex  8.926467e-02  1.240000e+00  2.130347e-01
     vertex -7.984909e-02  1.240000e+00  2.208533e-01
     vertex -6.975226e-02  1.240000e+00  2.277698e-01
   endloop
 endfacet
 facet normal  0.000000e+00  1.000000e+00  0.000000e+00
   outer loop
     vertex  8.926467e-02  1.240000e+00  2.130347e-01
     vertex -4.786452e-02  1.240000e+00  2.386686e-01
     vertex -3.626035e-02  1.240000e+00  2.425579e-01
   endloop
 endfacet
 facet normal  0.000000e+00  1.000000e+00  0.000000e+00
   outer loop
     vertex  8.926467e-02  1.240000e+00  2.130347e-01
     vertex -3.626035e-02  1.240000e+00  2.425579e-01
     vertex -2.434681e-02  1.240000e+00  2.453599e-01
   endloop
 endfacet
 facet normal  0.000000e+00  1.000000e+00  0.000000e+00
   outer loop
     vertex  8.926467e-02  1.240000e+00  2.130347e-01
     vertex -2.434681e-02  1.240000e+00  2.453599e-01
     vertex -1.222556e-02  1.240000e+00  2.470508e-01
   endloop
 endfacet
 facet normal  0.000000e+00  1.000000e+00  0.000000e+00
   outer loop
     vertex  8.926467e-02  1.240000e+00  2.130347e-01
     vertex -1.222556e-02  1.240000e+00  2.470508e-01
     vertex  1.681921e-16  1.240000e+00  2.476160e-01
   endloop
 endfacet
 facet normal  0.000000e+00  1.000000e+00  0.000000e+00
   outer loop
     vertex  8.926467e-02  1.240000e+00  2.130347e-01
     vertex  2.434681e-02  1.240000e+00  2.453599e-01
     vertex  3.626035e-02  1.240000e+00  2.425579e-01
   endloop
 endfacet
 facet normal  0.000000e+00  1.000000e+00  0.000000e+00
   outer loop
     vertex  8.926467e-02  1.240000e+00  2.130347e-01
     vertex  3.626035e-02  1.240000e+00  2.425579e-01
     vertex  4.786452e-02  1.240000e+00  2.386686e-01
   endloop
 endfacet
 facet normal  0.000000e+00  1.000000e+00  0.000000e+00
   outer loop
     vertex  8.926467e-02  1.240000e+00  2.130347e-01
     vertex  4.786452e-02  1.240000e+00  2.386686e-01
     vertex  5.906033e-02  1.240000e+00  2.337251e-01
   endloop
 endfacet
 facet normal  0.000000e+00  1.000000e+00  0.000000e+00
   outer loop
     vertex  8.926467e-02  1.240000e+00  2.130347e-01
     vertex  5.906033e-02  1.240000e+00  2.337251e-01
     vertex  6.975226e-02  1.240000e+00  2.277698e-01
   endloop
 endfacet
 facet normal  0.000000e+00  1.000000e+00  0.000000e+00
   outer loop
     vertex  8.926467e-02  1.240000e+00  2.130347e-01
     vertex  6.975226e-02  1.240000e+00  2.277698e-01
     vertex  7.984909e-02  1.240000e+00  2.208533e-01
   endloop
 endfacet
 facet normal  0.000000e+00  1.000000e+00  0.000000e+00
   outer loop
     vertex  8.926467e-02  1.240000e+00  2.130347e-01
     vertex  9.791868e-02  1.240000e+00  2.043807e-01
     vertex  1.057373e-01  1.240000e+00  1.949651e-01
   endloop
 endfacet
 facet normal  0.000000e+00  1.000000e+00  0.000000e+00
   outer loop
     vertex  8.926467e-02  1.240000e+00  2.130347e-01
     vertex  1.057373e-01  1.240000e+00  1.949651e-01
     vertex  1.126538e-01  1.240000e+00  1.848683e-01
   endloop
 endfacet
 facet normal  0.000000e+00  1.000000e+00  0.000000e+00
   outer loop
     vertex  8.926467e-02  1.240000e+00  2.130347e-01
     vertex  1.126538e-01  1.240000e+00  1.848683e-01
     vertex  1.186091e-01  1.240000e+00  1.741763e-01
   endloop
 endfacet
 facet normal  0.000000e+00  1.000000e+00  0.000000e+00
   outer loop
     vertex  8.926467e-02  1.240000e+00  2.130347e-01
     vertex  1.186091e-01  1.240000e+00  1.741763e-01
     vertex  1.235526e-01  1.240000e+00  1.629805e-01
   endloop
 endfacet
 facet normal  0.000000e+00  1.000000e+00  0.000000e+00
   outer loop
     vertex  8.926467e-02  1.240000e+00  2.130347e-01
     vertex  1.235526e-01  1.240000e+00  1.629805e-01
     vertex  1.274419e-01  1.240000e+00  1.513763e-01
   endloop
 endfacet
 facet normal  0.000000e+00  1.000000e+00  0.000000e+00
   outer loop
     vertex  8.926467e-02  1.240000e+00  2.130347e-01
     vertex  1.274419e-01  1.240000e+00  1.513763e-01
     vertex  1.302439e-01  1.240000e+00  1.394628e-01
   endloop
 endfacet
 facet normal  0.000000e+00  1.000000e+00  0.000000e+00
   outer loop
     vertex  8.926467e-02  1.240000e+00  2.130347e-01
     vertex  1.302439e-01  1.240000e+00  1.394628e-01
     vertex  1.319348e-01  1.240000e+00  1.273416e-01
   endloop
 endfacet
 facet normal  0.000000e+00  1.000000e+00  0.000000e+00
   outer loop
     vertex  8.926467e-02  1.240000e+00  2.130347e-01
     vertex  1.319348e-01  1.240000e+00  1.273416e-01
     vertex  1.325000e-01  1.240000e+00  1.151160e-01
   endloop
 endfacet
 facet normal  0.000000e+00  1.000000e+00  0.000000e+00
   outer loop
     vertex  8.926467e-02  1.240000e+00  2.130347e-01
     vertex  1.325000e-01  1.240000e+00  1.151160e-01
     vertex  1.319348e-01  1.240000e+00  1.028904e-01
   endloop
 endfacet
 facet normal  0.000000e+00  1.000000e+00  0.000000e+00
   outer loop
     vertex  8.926467e-02  1.240000e+00  2.130347e-01
     vertex  1.235526e-01  1.240000e+00  6.725148e-02
     vertex  1.126538e-01  1.240000e+00  4.536374e-02
   endloop
 endfacet
 facet normal  0.000000e+00  1.000000e+00  0.000000e+00
   outer loop
     vertex  8.926467e-02  1.240000e+00  2.130347e-01
     vertex  1.319348e-01  1.240000e+00  1.028904e-01
     vertex  1.302439e-01  1.240000e+00  9.076919e-02
   endloop
 endfacet
 facet normal  0.000000e+00  1.000000e+00  0.000000e+00
   outer loop
     vertex  8.926467e-02  1.240000e+00  2.130347e-01
     vertex  1.302439e-01  1.240000e+00  9.076919e-02
     vertex  1.274419e-01  1.240000e+00  7.885565e-02
   endloop
 endfacet
 facet normal  0.000000e+00  1.000000e+00  0.000000e+00
   outer loop
     vertex  8.926467e-02  1.240000e+00  2.130347e-01
     vertex  1.274419e-01  1.240000e+00  7.885565e-02
     vertex  1.235526e-01  1.240000e+00  6.725148e-02
   endloop
 endfacet
 facet normal  0.000000e+00  1.000000e+00  0.000000e+00
   outer loop
     vertex  8.926467e-02  1.240000e+00  2.130347e-01
     vertex  1.126538e-01  1.240000e+00  4.536374e-02
     vertex  1.057373e-01  1.240000e+00  3.526691e-02
   endloop
 endfacet
 facet normal  0.000000e+00  1.000000e+00  0.000000e+00
   outer loop
     vertex  8.926467e-02  1.240000e+00  2.130347e-01
     vertex  1.057373e-01  1.240000e+00  3.526691e-02
     vertex  9.791868e-02  1.240000e+00  2.585133e-02
   endloop
 endfacet
 facet normal  0.000000e+00  1.000000e+00  0.000000e+00
   outer loop
     vertex  8.926467e-02  1.240000e+00  2.130347e-01
     vertex  9.791868e-02  1.240000e+00  2.585133e-02
     vertex  8.926467e-02  1.240000e+00  1.719732e-02
   endloop
 endfacet
 facet normal  0.000000e+00  1.000000e+00  0.000000e+00
   outer loop
     vertex  8.926467e-02  1.240000e+00  2.130347e-01
     vertex  8.926467e-02  1.240000e+00  1.719732e-02
     vertex  7.984909e-02  1.240000e+00  9.378717e-03
   endloop
 endfacet
 facet normal  0.000000e+00  1.000000e+00  0.000000e+00
   outer loop
     vertex  8.926467e-02  1.240000e+00  2.130347e-01
     vertex  7.984909e-02  1.240000e+00  9.378717e-03
     vertex  6.975226e-02  1.240000e+00  2.462230e-03
   endloop
 endfacet
 facet normal  0.000000e+00  1.000000e+00  0.000000e+00
   outer loop
     vertex  8.926467e-02  1.240000e+00  2.130347e-01
     vertex  6.975226e-02  1.240000e+00  2.462230e-03
     vertex  5.906033e-02  1.240000e+00 -3.493136e-03
   endloop
 endfacet
 facet normal  0.000000e+00  1.000000e+00  0.000000e+00
   outer loop
     vertex  8.926467e-02  1.240000e+00  2.130347e-01
     vertex  5.906033e-02  1.240000e+00 -3.493136e-03
     vertex  4.786452e-02  1.240000e+00 -8.436570e-03
   endloop
 endfacet
 facet normal  0.000000e+00  1.000000e+00  0.000000e+00
   outer loop
     vertex  8.926467e-02  1.240000e+00  2.130347e-01
     vertex  4.786452e-02  1.240000e+00 -8.436570e-03
     vertex  3.626035e-02  1.240000e+00 -1.232590e-02
   endloop
 endfacet
 facet normal  0.000000e+00  1.000000e+00  0.000000e+00
   outer loop
     vertex  8.926467e-02  1.240000e+00  2.130347e-01
     vertex  3.626035e-02  1.240000e+00 -1.232590e-02
     vertex  2.434681e-02  1.240000e+00 -1.512794e-02
   endloop
 endfacet
 facet normal  0.000000e+00  1.000000e+00  0.000000e+00
   outer loop
     vertex  8.926467e-02  1.240000e+00  2.130347e-01
     vertex  2.434681e-02  1.240000e+00 -1.512794e-02
     vertex  1.222556e-02  1.240000e+00 -1.681878e-02
   endloop
 endfacet
 facet normal  0.000000e+00  1.000000e+00  0.000000e+00
   outer loop
     vertex  8.926467e-02  1.240000e+00  2.130347e-01
     vertex  1.222556e-02  1.240000e+00 -1.681878e-02
     vertex -1.849548e-17  1.240000e+00 -1.738400e-02
   endloop
 endfacet
 facet normal  0.000000e+00  1.000000e+00  0.000000e+00
   outer loop
     vertex  8.926467e-02  1.240000e+00  2.130347e-01
     vertex  1.681921e-16  1.240000e+00  2.476160e-01
     vertex  2.434681e-02  1.240000e+00  2.453599e-01
   endloop
 endfacet
endsolid
